G04 EAGLE Gerber RS-274X export*
G75*
%MOMM*%
%FSLAX34Y34*%
%LPD*%
%IN*%
%IPPOS*%
%AMOC8*
5,1,8,0,0,1.08239X$1,22.5*%
G01*
%ADD10C,0.254000*%


D10*
X0Y20000D02*
X-132Y18030D01*
X-92Y16055D01*
X120Y14091D01*
X502Y12154D01*
X1052Y10257D01*
X1764Y8415D01*
X2635Y6642D01*
X3657Y4952D01*
X4822Y3358D01*
X6122Y1871D01*
X7547Y503D01*
X9085Y-736D01*
X10725Y-1835D01*
X12455Y-2788D01*
X14262Y-3586D01*
X16131Y-4224D01*
X18048Y-4696D01*
X20000Y-5000D01*
X135000Y-5000D01*
X136952Y-4697D01*
X138869Y-4224D01*
X140738Y-3586D01*
X142545Y-2788D01*
X144275Y-1835D01*
X145915Y-736D01*
X147453Y503D01*
X148878Y1871D01*
X150178Y3358D01*
X151343Y4952D01*
X152365Y6642D01*
X153236Y8415D01*
X153948Y10257D01*
X154498Y12154D01*
X154880Y14091D01*
X155092Y16055D01*
X155132Y18029D01*
X155000Y20000D01*
X155000Y265000D01*
X154924Y266743D01*
X154696Y268473D01*
X154319Y270176D01*
X153794Y271840D01*
X153126Y273452D01*
X152321Y275000D01*
X151383Y276472D01*
X150321Y277856D01*
X149142Y279142D01*
X147856Y280321D01*
X146472Y281383D01*
X145000Y282321D01*
X143452Y283126D01*
X141840Y283794D01*
X140176Y284319D01*
X138473Y284696D01*
X136743Y284924D01*
X135000Y285000D01*
X20000Y285000D01*
X18257Y284924D01*
X16527Y284696D01*
X14824Y284319D01*
X13160Y283794D01*
X11548Y283126D01*
X10000Y282321D01*
X8528Y281383D01*
X7144Y280321D01*
X5858Y279142D01*
X4679Y277856D01*
X3617Y276472D01*
X2680Y275000D01*
X1874Y273452D01*
X1206Y271840D01*
X681Y270176D01*
X304Y268473D01*
X76Y266743D01*
X0Y265000D01*
X0Y20000D01*
X101750Y19254D02*
X101686Y18767D01*
X101559Y18292D01*
X101371Y17838D01*
X101125Y17412D01*
X100825Y17022D01*
X100478Y16675D01*
X100088Y16375D01*
X99662Y16130D01*
X99208Y15941D01*
X98733Y15814D01*
X98246Y15750D01*
X97754Y15750D01*
X97267Y15814D01*
X96792Y15941D01*
X96338Y16130D01*
X95912Y16375D01*
X95522Y16675D01*
X95175Y17022D01*
X94875Y17412D01*
X94630Y17838D01*
X94441Y18292D01*
X94314Y18767D01*
X94250Y19254D01*
X94250Y19746D01*
X94314Y20233D01*
X94441Y20708D01*
X94630Y21162D01*
X94875Y21588D01*
X95175Y21978D01*
X95522Y22325D01*
X95912Y22625D01*
X96338Y22871D01*
X96792Y23059D01*
X97267Y23186D01*
X97754Y23250D01*
X98246Y23250D01*
X98733Y23186D01*
X99208Y23059D01*
X99662Y22871D01*
X100088Y22625D01*
X100478Y22325D01*
X100825Y21978D01*
X101125Y21588D01*
X101371Y21162D01*
X101559Y20708D01*
X101686Y20233D01*
X101750Y19746D01*
X101750Y19254D01*
X65750Y19254D02*
X65686Y18767D01*
X65559Y18292D01*
X65371Y17838D01*
X65125Y17412D01*
X64825Y17022D01*
X64478Y16675D01*
X64088Y16375D01*
X63662Y16130D01*
X63208Y15941D01*
X62733Y15814D01*
X62246Y15750D01*
X61754Y15750D01*
X61267Y15814D01*
X60792Y15941D01*
X60338Y16130D01*
X59912Y16375D01*
X59522Y16675D01*
X59175Y17022D01*
X58875Y17412D01*
X58630Y17838D01*
X58441Y18292D01*
X58314Y18767D01*
X58250Y19254D01*
X58250Y19746D01*
X58314Y20233D01*
X58441Y20708D01*
X58630Y21162D01*
X58875Y21588D01*
X59175Y21978D01*
X59522Y22325D01*
X59912Y22625D01*
X60338Y22871D01*
X60792Y23059D01*
X61267Y23186D01*
X61754Y23250D01*
X62246Y23250D01*
X62733Y23186D01*
X63208Y23059D01*
X63662Y22871D01*
X64088Y22625D01*
X64478Y22325D01*
X64825Y21978D01*
X65125Y21588D01*
X65371Y21162D01*
X65559Y20708D01*
X65686Y20233D01*
X65750Y19746D01*
X65750Y19254D01*
X99691Y252500D02*
X99077Y252569D01*
X98475Y252707D01*
X97892Y252911D01*
X97335Y253179D01*
X96812Y253507D01*
X96329Y253893D01*
X95893Y254329D01*
X95507Y254812D01*
X95179Y255335D01*
X94911Y255892D01*
X94707Y256475D01*
X94569Y257077D01*
X94500Y257691D01*
X94500Y258309D01*
X94569Y258923D01*
X94707Y259525D01*
X94911Y260108D01*
X95179Y260665D01*
X95507Y261188D01*
X95893Y261671D01*
X96329Y262108D01*
X96812Y262493D01*
X97335Y262821D01*
X97892Y263089D01*
X98475Y263293D01*
X99077Y263431D01*
X99691Y263500D01*
X100309Y263500D01*
X100923Y263431D01*
X101525Y263293D01*
X102108Y263089D01*
X102665Y262821D01*
X103188Y262493D01*
X103671Y262108D01*
X104108Y261671D01*
X104493Y261188D01*
X104821Y260665D01*
X105089Y260108D01*
X105293Y259525D01*
X105431Y258923D01*
X105500Y258309D01*
X105500Y257691D01*
X105431Y257077D01*
X105293Y256475D01*
X105089Y255892D01*
X104821Y255335D01*
X104493Y254812D01*
X104108Y254329D01*
X103671Y253893D01*
X103188Y253507D01*
X102665Y253179D01*
X102108Y252911D01*
X101525Y252707D01*
X100923Y252569D01*
X100309Y252500D01*
X99691Y252500D01*
X54691Y252500D02*
X54077Y252569D01*
X53475Y252707D01*
X52892Y252911D01*
X52335Y253179D01*
X51812Y253507D01*
X51329Y253893D01*
X50893Y254329D01*
X50507Y254812D01*
X50179Y255335D01*
X49911Y255892D01*
X49707Y256475D01*
X49569Y257077D01*
X49500Y257691D01*
X49500Y258309D01*
X49569Y258923D01*
X49707Y259525D01*
X49911Y260108D01*
X50179Y260665D01*
X50507Y261188D01*
X50893Y261671D01*
X51329Y262108D01*
X51812Y262493D01*
X52335Y262821D01*
X52892Y263089D01*
X53475Y263293D01*
X54077Y263431D01*
X54691Y263500D01*
X55309Y263500D01*
X55923Y263431D01*
X56525Y263293D01*
X57108Y263089D01*
X57665Y262821D01*
X58188Y262493D01*
X58671Y262108D01*
X59108Y261671D01*
X59493Y261188D01*
X59821Y260665D01*
X60089Y260108D01*
X60293Y259525D01*
X60431Y258923D01*
X60500Y258309D01*
X60500Y257691D01*
X60431Y257077D01*
X60293Y256475D01*
X60089Y255892D01*
X59821Y255335D01*
X59493Y254812D01*
X59108Y254329D01*
X58671Y253893D01*
X58188Y253507D01*
X57665Y253179D01*
X57108Y252911D01*
X56525Y252707D01*
X55923Y252569D01*
X55309Y252500D01*
X54691Y252500D01*
X18738Y250700D02*
X18218Y250768D01*
X17711Y250904D01*
X17227Y251105D01*
X16773Y251367D01*
X16357Y251686D01*
X15986Y252057D01*
X15667Y252473D01*
X15405Y252927D01*
X15204Y253411D01*
X15068Y253918D01*
X15000Y254438D01*
X15000Y254962D01*
X15068Y255482D01*
X15204Y255989D01*
X15405Y256473D01*
X15667Y256927D01*
X15986Y257343D01*
X16357Y257714D01*
X16773Y258033D01*
X17227Y258295D01*
X17711Y258496D01*
X18218Y258632D01*
X18738Y258700D01*
X19262Y258700D01*
X19782Y258632D01*
X20289Y258496D01*
X20773Y258295D01*
X21227Y258033D01*
X21643Y257714D01*
X22014Y257343D01*
X22333Y256927D01*
X22595Y256473D01*
X22796Y255989D01*
X22932Y255482D01*
X23000Y254962D01*
X23000Y254438D01*
X22932Y253918D01*
X22796Y253411D01*
X22595Y252927D01*
X22333Y252473D01*
X22014Y252057D01*
X21643Y251686D01*
X21227Y251367D01*
X20773Y251105D01*
X20289Y250904D01*
X19782Y250768D01*
X19262Y250700D01*
X18738Y250700D01*
X18738Y246700D02*
X18218Y246768D01*
X17711Y246904D01*
X17227Y247105D01*
X16773Y247367D01*
X16357Y247686D01*
X15986Y248057D01*
X15667Y248473D01*
X15405Y248927D01*
X15204Y249411D01*
X15068Y249918D01*
X15000Y250438D01*
X15000Y250962D01*
X15068Y251482D01*
X15204Y251989D01*
X15405Y252473D01*
X15667Y252927D01*
X15986Y253343D01*
X16357Y253714D01*
X16773Y254033D01*
X17227Y254295D01*
X17711Y254496D01*
X18218Y254632D01*
X18738Y254700D01*
X19262Y254700D01*
X19782Y254632D01*
X20289Y254496D01*
X20773Y254295D01*
X21227Y254033D01*
X21643Y253714D01*
X22014Y253343D01*
X22333Y252927D01*
X22595Y252473D01*
X22796Y251989D01*
X22932Y251482D01*
X23000Y250962D01*
X23000Y250438D01*
X22932Y249918D01*
X22796Y249411D01*
X22595Y248927D01*
X22333Y248473D01*
X22014Y248057D01*
X21643Y247686D01*
X21227Y247367D01*
X20773Y247105D01*
X20289Y246904D01*
X19782Y246768D01*
X19262Y246700D01*
X18738Y246700D01*
X18738Y258700D02*
X18218Y258768D01*
X17711Y258904D01*
X17227Y259105D01*
X16773Y259367D01*
X16357Y259686D01*
X15986Y260057D01*
X15667Y260473D01*
X15405Y260927D01*
X15204Y261411D01*
X15068Y261918D01*
X15000Y262438D01*
X15000Y262962D01*
X15068Y263482D01*
X15204Y263989D01*
X15405Y264473D01*
X15667Y264927D01*
X15986Y265343D01*
X16357Y265714D01*
X16773Y266033D01*
X17227Y266295D01*
X17711Y266496D01*
X18218Y266632D01*
X18738Y266700D01*
X19262Y266700D01*
X19782Y266632D01*
X20289Y266496D01*
X20773Y266295D01*
X21227Y266033D01*
X21643Y265714D01*
X22014Y265343D01*
X22333Y264927D01*
X22595Y264473D01*
X22796Y263989D01*
X22932Y263482D01*
X23000Y262962D01*
X23000Y262438D01*
X22932Y261918D01*
X22796Y261411D01*
X22595Y260927D01*
X22333Y260473D01*
X22014Y260057D01*
X21643Y259686D01*
X21227Y259367D01*
X20773Y259105D01*
X20289Y258904D01*
X19782Y258768D01*
X19262Y258700D01*
X18738Y258700D01*
X18738Y262700D02*
X18218Y262768D01*
X17711Y262904D01*
X17227Y263105D01*
X16773Y263367D01*
X16357Y263686D01*
X15986Y264057D01*
X15667Y264473D01*
X15405Y264927D01*
X15204Y265411D01*
X15068Y265918D01*
X15000Y266438D01*
X15000Y266962D01*
X15068Y267482D01*
X15204Y267989D01*
X15405Y268473D01*
X15667Y268927D01*
X15986Y269343D01*
X16357Y269714D01*
X16773Y270033D01*
X17227Y270295D01*
X17711Y270496D01*
X18218Y270632D01*
X18738Y270700D01*
X19262Y270700D01*
X19782Y270632D01*
X20289Y270496D01*
X20773Y270295D01*
X21227Y270033D01*
X21643Y269714D01*
X22014Y269343D01*
X22333Y268927D01*
X22595Y268473D01*
X22796Y267989D01*
X22932Y267482D01*
X23000Y266962D01*
X23000Y266438D01*
X22932Y265918D01*
X22796Y265411D01*
X22595Y264927D01*
X22333Y264473D01*
X22014Y264057D01*
X21643Y263686D01*
X21227Y263367D01*
X20773Y263105D01*
X20289Y262904D01*
X19782Y262768D01*
X19262Y262700D01*
X18738Y262700D01*
X135738Y250700D02*
X135218Y250768D01*
X134711Y250904D01*
X134227Y251105D01*
X133773Y251367D01*
X133357Y251686D01*
X132986Y252057D01*
X132667Y252473D01*
X132405Y252927D01*
X132204Y253411D01*
X132068Y253918D01*
X132000Y254438D01*
X132000Y254962D01*
X132068Y255482D01*
X132204Y255989D01*
X132405Y256473D01*
X132667Y256927D01*
X132986Y257343D01*
X133357Y257714D01*
X133773Y258033D01*
X134227Y258295D01*
X134711Y258496D01*
X135218Y258632D01*
X135738Y258700D01*
X136262Y258700D01*
X136782Y258632D01*
X137289Y258496D01*
X137773Y258295D01*
X138227Y258033D01*
X138643Y257714D01*
X139014Y257343D01*
X139333Y256927D01*
X139595Y256473D01*
X139796Y255989D01*
X139932Y255482D01*
X140000Y254962D01*
X140000Y254438D01*
X139932Y253918D01*
X139796Y253411D01*
X139595Y252927D01*
X139333Y252473D01*
X139014Y252057D01*
X138643Y251686D01*
X138227Y251367D01*
X137773Y251105D01*
X137289Y250904D01*
X136782Y250768D01*
X136262Y250700D01*
X135738Y250700D01*
X135738Y246700D02*
X135218Y246768D01*
X134711Y246904D01*
X134227Y247105D01*
X133773Y247367D01*
X133357Y247686D01*
X132986Y248057D01*
X132667Y248473D01*
X132405Y248927D01*
X132204Y249411D01*
X132068Y249918D01*
X132000Y250438D01*
X132000Y250962D01*
X132068Y251482D01*
X132204Y251989D01*
X132405Y252473D01*
X132667Y252927D01*
X132986Y253343D01*
X133357Y253714D01*
X133773Y254033D01*
X134227Y254295D01*
X134711Y254496D01*
X135218Y254632D01*
X135738Y254700D01*
X136262Y254700D01*
X136782Y254632D01*
X137289Y254496D01*
X137773Y254295D01*
X138227Y254033D01*
X138643Y253714D01*
X139014Y253343D01*
X139333Y252927D01*
X139595Y252473D01*
X139796Y251989D01*
X139932Y251482D01*
X140000Y250962D01*
X140000Y250438D01*
X139932Y249918D01*
X139796Y249411D01*
X139595Y248927D01*
X139333Y248473D01*
X139014Y248057D01*
X138643Y247686D01*
X138227Y247367D01*
X137773Y247105D01*
X137289Y246904D01*
X136782Y246768D01*
X136262Y246700D01*
X135738Y246700D01*
X135738Y258700D02*
X135218Y258768D01*
X134711Y258904D01*
X134227Y259105D01*
X133773Y259367D01*
X133357Y259686D01*
X132986Y260057D01*
X132667Y260473D01*
X132405Y260927D01*
X132204Y261411D01*
X132068Y261918D01*
X132000Y262438D01*
X132000Y262962D01*
X132068Y263482D01*
X132204Y263989D01*
X132405Y264473D01*
X132667Y264927D01*
X132986Y265343D01*
X133357Y265714D01*
X133773Y266033D01*
X134227Y266295D01*
X134711Y266496D01*
X135218Y266632D01*
X135738Y266700D01*
X136262Y266700D01*
X136782Y266632D01*
X137289Y266496D01*
X137773Y266295D01*
X138227Y266033D01*
X138643Y265714D01*
X139014Y265343D01*
X139333Y264927D01*
X139595Y264473D01*
X139796Y263989D01*
X139932Y263482D01*
X140000Y262962D01*
X140000Y262438D01*
X139932Y261918D01*
X139796Y261411D01*
X139595Y260927D01*
X139333Y260473D01*
X139014Y260057D01*
X138643Y259686D01*
X138227Y259367D01*
X137773Y259105D01*
X137289Y258904D01*
X136782Y258768D01*
X136262Y258700D01*
X135738Y258700D01*
X135738Y262700D02*
X135218Y262768D01*
X134711Y262904D01*
X134227Y263105D01*
X133773Y263367D01*
X133357Y263686D01*
X132986Y264057D01*
X132667Y264473D01*
X132405Y264927D01*
X132204Y265411D01*
X132068Y265918D01*
X132000Y266438D01*
X132000Y266962D01*
X132068Y267482D01*
X132204Y267989D01*
X132405Y268473D01*
X132667Y268927D01*
X132986Y269343D01*
X133357Y269714D01*
X133773Y270033D01*
X134227Y270295D01*
X134711Y270496D01*
X135218Y270632D01*
X135738Y270700D01*
X136262Y270700D01*
X136782Y270632D01*
X137289Y270496D01*
X137773Y270295D01*
X138227Y270033D01*
X138643Y269714D01*
X139014Y269343D01*
X139333Y268927D01*
X139595Y268473D01*
X139796Y267989D01*
X139932Y267482D01*
X140000Y266962D01*
X140000Y266438D01*
X139932Y265918D01*
X139796Y265411D01*
X139595Y264927D01*
X139333Y264473D01*
X139014Y264057D01*
X138643Y263686D01*
X138227Y263367D01*
X137773Y263105D01*
X137289Y262904D01*
X136782Y262768D01*
X136262Y262700D01*
X135738Y262700D01*
M02*
