G04 EAGLE Gerber RS-274X export*
G75*
%MOMM*%
%FSLAX34Y34*%
%LPD*%
%INSilkscreen Top*%
%IPPOS*%
%AMOC8*
5,1,8,0,0,1.08239X$1,22.5*%
G01*
%ADD10C,0.254000*%
%ADD11C,0.127000*%


D10*
X68000Y150000D02*
X68002Y150089D01*
X68008Y150178D01*
X68018Y150267D01*
X68032Y150355D01*
X68049Y150442D01*
X68071Y150528D01*
X68097Y150614D01*
X68126Y150698D01*
X68159Y150781D01*
X68195Y150862D01*
X68236Y150942D01*
X68279Y151019D01*
X68326Y151095D01*
X68377Y151168D01*
X68430Y151239D01*
X68487Y151308D01*
X68547Y151374D01*
X68610Y151438D01*
X68675Y151498D01*
X68743Y151556D01*
X68814Y151610D01*
X68887Y151661D01*
X68962Y151709D01*
X69039Y151754D01*
X69118Y151795D01*
X69199Y151832D01*
X69281Y151866D01*
X69365Y151897D01*
X69450Y151923D01*
X69536Y151946D01*
X69623Y151964D01*
X69711Y151979D01*
X69800Y151990D01*
X69889Y151997D01*
X69978Y152000D01*
X70067Y151999D01*
X70156Y151994D01*
X70244Y151985D01*
X70333Y151972D01*
X70420Y151955D01*
X70507Y151935D01*
X70593Y151910D01*
X70677Y151882D01*
X70760Y151850D01*
X70842Y151814D01*
X70922Y151775D01*
X71000Y151732D01*
X71076Y151686D01*
X71150Y151636D01*
X71222Y151583D01*
X71291Y151527D01*
X71358Y151468D01*
X71422Y151406D01*
X71483Y151342D01*
X71542Y151274D01*
X71597Y151204D01*
X71649Y151132D01*
X71698Y151057D01*
X71743Y150981D01*
X71785Y150902D01*
X71823Y150822D01*
X71858Y150740D01*
X71889Y150656D01*
X71917Y150571D01*
X71940Y150485D01*
X71960Y150398D01*
X71976Y150311D01*
X71988Y150222D01*
X71996Y150134D01*
X72000Y150045D01*
X72000Y149955D01*
X71996Y149866D01*
X71988Y149778D01*
X71976Y149689D01*
X71960Y149602D01*
X71940Y149515D01*
X71917Y149429D01*
X71889Y149344D01*
X71858Y149260D01*
X71823Y149178D01*
X71785Y149098D01*
X71743Y149019D01*
X71698Y148943D01*
X71649Y148868D01*
X71597Y148796D01*
X71542Y148726D01*
X71483Y148658D01*
X71422Y148594D01*
X71358Y148532D01*
X71291Y148473D01*
X71222Y148417D01*
X71150Y148364D01*
X71076Y148314D01*
X71000Y148268D01*
X70922Y148225D01*
X70842Y148186D01*
X70760Y148150D01*
X70677Y148118D01*
X70593Y148090D01*
X70507Y148065D01*
X70420Y148045D01*
X70333Y148028D01*
X70244Y148015D01*
X70156Y148006D01*
X70067Y148001D01*
X69978Y148000D01*
X69889Y148003D01*
X69800Y148010D01*
X69711Y148021D01*
X69623Y148036D01*
X69536Y148054D01*
X69450Y148077D01*
X69365Y148103D01*
X69281Y148134D01*
X69199Y148168D01*
X69118Y148205D01*
X69039Y148246D01*
X68962Y148291D01*
X68887Y148339D01*
X68814Y148390D01*
X68743Y148444D01*
X68675Y148502D01*
X68610Y148562D01*
X68547Y148626D01*
X68487Y148692D01*
X68430Y148761D01*
X68377Y148832D01*
X68326Y148905D01*
X68279Y148981D01*
X68236Y149058D01*
X68195Y149138D01*
X68159Y149219D01*
X68126Y149302D01*
X68097Y149386D01*
X68071Y149472D01*
X68049Y149558D01*
X68032Y149645D01*
X68018Y149733D01*
X68008Y149822D01*
X68002Y149911D01*
X68000Y150000D01*
X88000Y150000D02*
X88002Y150089D01*
X88008Y150178D01*
X88018Y150267D01*
X88032Y150355D01*
X88049Y150442D01*
X88071Y150528D01*
X88097Y150614D01*
X88126Y150698D01*
X88159Y150781D01*
X88195Y150862D01*
X88236Y150942D01*
X88279Y151019D01*
X88326Y151095D01*
X88377Y151168D01*
X88430Y151239D01*
X88487Y151308D01*
X88547Y151374D01*
X88610Y151438D01*
X88675Y151498D01*
X88743Y151556D01*
X88814Y151610D01*
X88887Y151661D01*
X88962Y151709D01*
X89039Y151754D01*
X89118Y151795D01*
X89199Y151832D01*
X89281Y151866D01*
X89365Y151897D01*
X89450Y151923D01*
X89536Y151946D01*
X89623Y151964D01*
X89711Y151979D01*
X89800Y151990D01*
X89889Y151997D01*
X89978Y152000D01*
X90067Y151999D01*
X90156Y151994D01*
X90244Y151985D01*
X90333Y151972D01*
X90420Y151955D01*
X90507Y151935D01*
X90593Y151910D01*
X90677Y151882D01*
X90760Y151850D01*
X90842Y151814D01*
X90922Y151775D01*
X91000Y151732D01*
X91076Y151686D01*
X91150Y151636D01*
X91222Y151583D01*
X91291Y151527D01*
X91358Y151468D01*
X91422Y151406D01*
X91483Y151342D01*
X91542Y151274D01*
X91597Y151204D01*
X91649Y151132D01*
X91698Y151057D01*
X91743Y150981D01*
X91785Y150902D01*
X91823Y150822D01*
X91858Y150740D01*
X91889Y150656D01*
X91917Y150571D01*
X91940Y150485D01*
X91960Y150398D01*
X91976Y150311D01*
X91988Y150222D01*
X91996Y150134D01*
X92000Y150045D01*
X92000Y149955D01*
X91996Y149866D01*
X91988Y149778D01*
X91976Y149689D01*
X91960Y149602D01*
X91940Y149515D01*
X91917Y149429D01*
X91889Y149344D01*
X91858Y149260D01*
X91823Y149178D01*
X91785Y149098D01*
X91743Y149019D01*
X91698Y148943D01*
X91649Y148868D01*
X91597Y148796D01*
X91542Y148726D01*
X91483Y148658D01*
X91422Y148594D01*
X91358Y148532D01*
X91291Y148473D01*
X91222Y148417D01*
X91150Y148364D01*
X91076Y148314D01*
X91000Y148268D01*
X90922Y148225D01*
X90842Y148186D01*
X90760Y148150D01*
X90677Y148118D01*
X90593Y148090D01*
X90507Y148065D01*
X90420Y148045D01*
X90333Y148028D01*
X90244Y148015D01*
X90156Y148006D01*
X90067Y148001D01*
X89978Y148000D01*
X89889Y148003D01*
X89800Y148010D01*
X89711Y148021D01*
X89623Y148036D01*
X89536Y148054D01*
X89450Y148077D01*
X89365Y148103D01*
X89281Y148134D01*
X89199Y148168D01*
X89118Y148205D01*
X89039Y148246D01*
X88962Y148291D01*
X88887Y148339D01*
X88814Y148390D01*
X88743Y148444D01*
X88675Y148502D01*
X88610Y148562D01*
X88547Y148626D01*
X88487Y148692D01*
X88430Y148761D01*
X88377Y148832D01*
X88326Y148905D01*
X88279Y148981D01*
X88236Y149058D01*
X88195Y149138D01*
X88159Y149219D01*
X88126Y149302D01*
X88097Y149386D01*
X88071Y149472D01*
X88049Y149558D01*
X88032Y149645D01*
X88018Y149733D01*
X88008Y149822D01*
X88002Y149911D01*
X88000Y150000D01*
X94000Y138000D02*
X93681Y137642D01*
X93354Y137291D01*
X93019Y136948D01*
X92675Y136613D01*
X92323Y136287D01*
X91964Y135969D01*
X91597Y135661D01*
X91223Y135361D01*
X90841Y135070D01*
X90453Y134788D01*
X90058Y134516D01*
X89656Y134254D01*
X89248Y134001D01*
X88835Y133759D01*
X88415Y133526D01*
X87990Y133304D01*
X87560Y133092D01*
X87125Y132890D01*
X86685Y132699D01*
X86240Y132519D01*
X85792Y132349D01*
X85339Y132190D01*
X84883Y132043D01*
X84423Y131906D01*
X83960Y131781D01*
X83494Y131666D01*
X83025Y131563D01*
X82555Y131472D01*
X82082Y131392D01*
X81607Y131323D01*
X81131Y131266D01*
X80653Y131220D01*
X80175Y131186D01*
X79696Y131163D01*
X79216Y131152D01*
X78737Y131153D01*
X78257Y131165D01*
X77778Y131189D01*
X77300Y131224D01*
X76822Y131271D01*
X76346Y131329D01*
X75872Y131399D01*
X75399Y131480D01*
X74928Y131573D01*
X74460Y131677D01*
X73994Y131793D01*
X73532Y131919D01*
X73072Y132057D01*
X72616Y132206D01*
X72164Y132365D01*
X71716Y132536D01*
X71272Y132717D01*
X70832Y132909D01*
X70397Y133112D01*
X69968Y133325D01*
X69543Y133549D01*
X69124Y133782D01*
X68711Y134026D01*
X68304Y134279D01*
X67903Y134543D01*
X67509Y134816D01*
X67121Y135098D01*
X66740Y135390D01*
X66367Y135691D01*
X66000Y136000D01*
X94757Y105000D02*
X94759Y105130D01*
X94765Y105260D01*
X94775Y105390D01*
X94789Y105519D01*
X94807Y105648D01*
X94829Y105776D01*
X94854Y105903D01*
X94884Y106030D01*
X94917Y106156D01*
X94955Y106280D01*
X94996Y106404D01*
X95041Y106526D01*
X95089Y106646D01*
X95142Y106765D01*
X95198Y106883D01*
X95257Y106998D01*
X95320Y107112D01*
X95387Y107224D01*
X95456Y107334D01*
X95530Y107441D01*
X95606Y107546D01*
X95686Y107649D01*
X95768Y107749D01*
X95854Y107847D01*
X95943Y107942D01*
X96034Y108035D01*
X96129Y108124D01*
X96226Y108211D01*
X96326Y108294D01*
X96428Y108374D01*
X96532Y108452D01*
X96639Y108526D01*
X96748Y108596D01*
X96860Y108664D01*
X96973Y108728D01*
X97088Y108788D01*
X97205Y108845D01*
X97324Y108898D01*
X97444Y108947D01*
X97566Y108993D01*
X97689Y109035D01*
X97813Y109074D01*
X97939Y109108D01*
X98065Y109139D01*
X98192Y109165D01*
X98320Y109188D01*
X98449Y109207D01*
X98578Y109222D01*
X98708Y109233D01*
X98837Y109240D01*
X98967Y109243D01*
X99098Y109242D01*
X99227Y109237D01*
X99357Y109228D01*
X99487Y109215D01*
X99616Y109198D01*
X99744Y109177D01*
X99872Y109153D01*
X99998Y109124D01*
X100124Y109091D01*
X100249Y109055D01*
X100373Y109015D01*
X100495Y108971D01*
X100616Y108923D01*
X100736Y108872D01*
X100854Y108817D01*
X100970Y108758D01*
X101084Y108696D01*
X101196Y108630D01*
X101306Y108561D01*
X101414Y108489D01*
X101520Y108413D01*
X101624Y108335D01*
X101725Y108253D01*
X101823Y108168D01*
X101919Y108080D01*
X102012Y107989D01*
X102102Y107895D01*
X102189Y107799D01*
X102273Y107700D01*
X102355Y107598D01*
X102433Y107494D01*
X102507Y107388D01*
X102579Y107279D01*
X102647Y107168D01*
X102712Y107055D01*
X102773Y106941D01*
X102831Y106824D01*
X102885Y106706D01*
X102935Y106586D01*
X102982Y106465D01*
X103025Y106342D01*
X103064Y106218D01*
X103100Y106093D01*
X103131Y105967D01*
X103159Y105840D01*
X103183Y105712D01*
X103203Y105583D01*
X103219Y105454D01*
X103231Y105325D01*
X103239Y105195D01*
X103243Y105065D01*
X103243Y104935D01*
X103239Y104805D01*
X103231Y104675D01*
X103219Y104546D01*
X103203Y104417D01*
X103183Y104288D01*
X103159Y104160D01*
X103131Y104033D01*
X103100Y103907D01*
X103064Y103782D01*
X103025Y103658D01*
X102982Y103535D01*
X102935Y103414D01*
X102885Y103294D01*
X102831Y103176D01*
X102773Y103059D01*
X102712Y102945D01*
X102647Y102832D01*
X102579Y102721D01*
X102507Y102612D01*
X102433Y102506D01*
X102355Y102402D01*
X102273Y102300D01*
X102189Y102201D01*
X102102Y102105D01*
X102012Y102011D01*
X101919Y101920D01*
X101823Y101832D01*
X101725Y101747D01*
X101624Y101665D01*
X101520Y101587D01*
X101414Y101511D01*
X101306Y101439D01*
X101196Y101370D01*
X101084Y101304D01*
X100970Y101242D01*
X100854Y101183D01*
X100736Y101128D01*
X100616Y101077D01*
X100495Y101029D01*
X100373Y100985D01*
X100249Y100945D01*
X100124Y100909D01*
X99998Y100876D01*
X99872Y100847D01*
X99744Y100823D01*
X99616Y100802D01*
X99487Y100785D01*
X99357Y100772D01*
X99227Y100763D01*
X99098Y100758D01*
X98967Y100757D01*
X98837Y100760D01*
X98708Y100767D01*
X98578Y100778D01*
X98449Y100793D01*
X98320Y100812D01*
X98192Y100835D01*
X98065Y100861D01*
X97939Y100892D01*
X97813Y100926D01*
X97689Y100965D01*
X97566Y101007D01*
X97444Y101053D01*
X97324Y101102D01*
X97205Y101155D01*
X97088Y101212D01*
X96973Y101272D01*
X96860Y101336D01*
X96748Y101404D01*
X96639Y101474D01*
X96532Y101548D01*
X96428Y101626D01*
X96326Y101706D01*
X96226Y101789D01*
X96129Y101876D01*
X96034Y101965D01*
X95943Y102058D01*
X95854Y102153D01*
X95768Y102251D01*
X95686Y102351D01*
X95606Y102454D01*
X95530Y102559D01*
X95456Y102666D01*
X95387Y102776D01*
X95320Y102888D01*
X95257Y103002D01*
X95198Y103117D01*
X95142Y103235D01*
X95089Y103354D01*
X95041Y103474D01*
X94996Y103596D01*
X94955Y103720D01*
X94917Y103844D01*
X94884Y103970D01*
X94854Y104097D01*
X94829Y104224D01*
X94807Y104352D01*
X94789Y104481D01*
X94775Y104610D01*
X94765Y104740D01*
X94759Y104870D01*
X94757Y105000D01*
X16000Y176000D02*
X9000Y176000D01*
X24000Y149000D02*
X31000Y149000D01*
X137000Y168000D02*
X145000Y168000D01*
D11*
X74535Y144193D02*
X74535Y139240D01*
X74537Y139155D01*
X74543Y139069D01*
X74552Y138984D01*
X74566Y138900D01*
X74583Y138816D01*
X74604Y138733D01*
X74628Y138651D01*
X74656Y138571D01*
X74688Y138491D01*
X74724Y138413D01*
X74762Y138337D01*
X74805Y138263D01*
X74850Y138191D01*
X74899Y138120D01*
X74951Y138052D01*
X75005Y137987D01*
X75063Y137924D01*
X75124Y137863D01*
X75187Y137805D01*
X75252Y137751D01*
X75320Y137699D01*
X75391Y137650D01*
X75463Y137605D01*
X75537Y137562D01*
X75613Y137524D01*
X75691Y137488D01*
X75771Y137456D01*
X75851Y137428D01*
X75933Y137404D01*
X76016Y137383D01*
X76100Y137366D01*
X76184Y137352D01*
X76269Y137343D01*
X76355Y137337D01*
X76440Y137335D01*
X76525Y137337D01*
X76611Y137343D01*
X76696Y137352D01*
X76780Y137366D01*
X76864Y137383D01*
X76947Y137404D01*
X77029Y137428D01*
X77109Y137456D01*
X77189Y137488D01*
X77267Y137524D01*
X77343Y137562D01*
X77417Y137605D01*
X77489Y137650D01*
X77560Y137699D01*
X77628Y137751D01*
X77693Y137805D01*
X77756Y137863D01*
X77817Y137924D01*
X77875Y137987D01*
X77929Y138052D01*
X77981Y138120D01*
X78030Y138191D01*
X78075Y138263D01*
X78118Y138337D01*
X78156Y138413D01*
X78192Y138491D01*
X78224Y138571D01*
X78252Y138651D01*
X78276Y138733D01*
X78297Y138816D01*
X78314Y138900D01*
X78328Y138984D01*
X78337Y139069D01*
X78343Y139155D01*
X78345Y139240D01*
X78345Y144193D01*
X82094Y142669D02*
X83999Y144193D01*
X83999Y137335D01*
X82094Y137335D02*
X85904Y137335D01*
M02*
