G04 EAGLE Gerber RS-274X export*
G75*
%MOMM*%
%FSLAX34Y34*%
%LPD*%
%INSilkscreen Bottom*%
%IPPOS*%
%AMOC8*
5,1,8,0,0,1.08239X$1,22.5*%
G01*
%ADD10C,0.482600*%
%ADD11C,0.330200*%
%ADD12C,0.228600*%
%ADD13C,0.152400*%


D10*
X12413Y88112D02*
X29196Y88112D01*
X36188Y87413D02*
X37587Y87413D01*
X37587Y88812D01*
X36188Y88812D01*
X36188Y87413D01*
X30594Y97657D02*
X19406Y97657D01*
X30594Y97657D02*
X30764Y97659D01*
X30934Y97665D01*
X31104Y97676D01*
X31274Y97690D01*
X31443Y97709D01*
X31612Y97732D01*
X31780Y97758D01*
X31948Y97789D01*
X32114Y97824D01*
X32280Y97863D01*
X32445Y97906D01*
X32609Y97953D01*
X32771Y98005D01*
X32932Y98060D01*
X33092Y98118D01*
X33250Y98181D01*
X33407Y98248D01*
X33562Y98318D01*
X33716Y98392D01*
X33867Y98470D01*
X34016Y98552D01*
X34164Y98637D01*
X34309Y98726D01*
X34453Y98818D01*
X34593Y98914D01*
X34732Y99013D01*
X34868Y99115D01*
X35001Y99221D01*
X35132Y99330D01*
X35261Y99442D01*
X35386Y99557D01*
X35509Y99675D01*
X35628Y99796D01*
X35745Y99920D01*
X35859Y100047D01*
X35969Y100177D01*
X36076Y100309D01*
X36181Y100444D01*
X36281Y100581D01*
X36379Y100721D01*
X36473Y100863D01*
X36563Y101007D01*
X36650Y101154D01*
X36733Y101302D01*
X36813Y101453D01*
X36889Y101605D01*
X36961Y101759D01*
X37030Y101915D01*
X37095Y102073D01*
X37156Y102232D01*
X37212Y102392D01*
X37265Y102554D01*
X37315Y102717D01*
X37360Y102881D01*
X37401Y103047D01*
X37438Y103213D01*
X37471Y103380D01*
X37500Y103548D01*
X37524Y103716D01*
X37545Y103885D01*
X37562Y104055D01*
X37574Y104225D01*
X37582Y104395D01*
X37586Y104565D01*
X37586Y104735D01*
X37582Y104905D01*
X37574Y105075D01*
X37562Y105245D01*
X37545Y105415D01*
X37524Y105584D01*
X37500Y105752D01*
X37471Y105920D01*
X37438Y106087D01*
X37401Y106253D01*
X37360Y106419D01*
X37315Y106583D01*
X37265Y106746D01*
X37212Y106908D01*
X37156Y107068D01*
X37095Y107227D01*
X37030Y107385D01*
X36961Y107541D01*
X36889Y107695D01*
X36813Y107847D01*
X36733Y107998D01*
X36650Y108147D01*
X36563Y108293D01*
X36473Y108437D01*
X36379Y108579D01*
X36281Y108719D01*
X36181Y108856D01*
X36076Y108991D01*
X35969Y109123D01*
X35859Y109253D01*
X35745Y109380D01*
X35628Y109504D01*
X35509Y109625D01*
X35386Y109743D01*
X35261Y109858D01*
X35132Y109970D01*
X35001Y110079D01*
X34868Y110185D01*
X34732Y110287D01*
X34593Y110386D01*
X34453Y110482D01*
X34309Y110574D01*
X34164Y110663D01*
X34016Y110748D01*
X33867Y110830D01*
X33716Y110908D01*
X33562Y110982D01*
X33407Y111052D01*
X33250Y111119D01*
X33092Y111182D01*
X32932Y111240D01*
X32771Y111295D01*
X32609Y111347D01*
X32445Y111394D01*
X32280Y111437D01*
X32114Y111476D01*
X31948Y111511D01*
X31780Y111542D01*
X31612Y111568D01*
X31443Y111591D01*
X31274Y111610D01*
X31104Y111624D01*
X30934Y111635D01*
X30764Y111641D01*
X30594Y111643D01*
X30594Y111642D02*
X19406Y111642D01*
X19406Y111643D02*
X19236Y111641D01*
X19066Y111635D01*
X18896Y111624D01*
X18726Y111610D01*
X18557Y111591D01*
X18388Y111568D01*
X18220Y111542D01*
X18052Y111511D01*
X17886Y111476D01*
X17720Y111437D01*
X17555Y111394D01*
X17391Y111347D01*
X17229Y111295D01*
X17068Y111240D01*
X16908Y111182D01*
X16750Y111119D01*
X16593Y111052D01*
X16438Y110982D01*
X16284Y110908D01*
X16133Y110830D01*
X15984Y110748D01*
X15836Y110663D01*
X15691Y110574D01*
X15547Y110482D01*
X15407Y110386D01*
X15268Y110287D01*
X15132Y110185D01*
X14999Y110079D01*
X14868Y109970D01*
X14739Y109858D01*
X14614Y109743D01*
X14491Y109625D01*
X14372Y109504D01*
X14255Y109380D01*
X14141Y109253D01*
X14031Y109123D01*
X13924Y108991D01*
X13819Y108856D01*
X13719Y108719D01*
X13621Y108579D01*
X13527Y108437D01*
X13437Y108293D01*
X13350Y108147D01*
X13267Y107998D01*
X13187Y107847D01*
X13111Y107695D01*
X13039Y107541D01*
X12970Y107385D01*
X12905Y107227D01*
X12844Y107068D01*
X12788Y106908D01*
X12735Y106746D01*
X12685Y106583D01*
X12640Y106419D01*
X12599Y106253D01*
X12562Y106087D01*
X12529Y105920D01*
X12500Y105752D01*
X12476Y105584D01*
X12455Y105415D01*
X12438Y105245D01*
X12426Y105075D01*
X12418Y104905D01*
X12414Y104735D01*
X12414Y104565D01*
X12418Y104395D01*
X12426Y104225D01*
X12438Y104055D01*
X12455Y103885D01*
X12476Y103716D01*
X12500Y103548D01*
X12529Y103380D01*
X12562Y103213D01*
X12599Y103047D01*
X12640Y102881D01*
X12685Y102717D01*
X12735Y102554D01*
X12788Y102392D01*
X12844Y102232D01*
X12905Y102073D01*
X12970Y101915D01*
X13039Y101759D01*
X13111Y101605D01*
X13187Y101453D01*
X13267Y101302D01*
X13350Y101153D01*
X13437Y101007D01*
X13527Y100863D01*
X13621Y100721D01*
X13719Y100581D01*
X13819Y100444D01*
X13924Y100309D01*
X14031Y100177D01*
X14141Y100047D01*
X14255Y99920D01*
X14372Y99796D01*
X14491Y99675D01*
X14614Y99557D01*
X14739Y99442D01*
X14868Y99330D01*
X14999Y99221D01*
X15132Y99115D01*
X15268Y99013D01*
X15407Y98914D01*
X15547Y98818D01*
X15691Y98726D01*
X15836Y98637D01*
X15984Y98552D01*
X16133Y98470D01*
X16284Y98392D01*
X16438Y98318D01*
X16593Y98248D01*
X16750Y98181D01*
X16908Y98118D01*
X17068Y98060D01*
X17229Y98005D01*
X17391Y97953D01*
X17555Y97906D01*
X17720Y97863D01*
X17886Y97824D01*
X18052Y97789D01*
X18220Y97758D01*
X18388Y97732D01*
X18557Y97709D01*
X18726Y97690D01*
X18896Y97676D01*
X19066Y97665D01*
X19236Y97659D01*
X19406Y97657D01*
D11*
X25283Y119151D02*
X14151Y121934D01*
X21572Y124717D01*
X14151Y127500D01*
X25283Y130283D01*
X20645Y140810D02*
X20645Y144984D01*
X20645Y140810D02*
X20643Y140698D01*
X20637Y140586D01*
X20628Y140474D01*
X20614Y140363D01*
X20597Y140252D01*
X20576Y140142D01*
X20551Y140033D01*
X20522Y139925D01*
X20490Y139817D01*
X20453Y139711D01*
X20414Y139606D01*
X20370Y139503D01*
X20323Y139401D01*
X20273Y139301D01*
X20219Y139203D01*
X20162Y139106D01*
X20102Y139012D01*
X20038Y138920D01*
X19971Y138830D01*
X19901Y138742D01*
X19828Y138657D01*
X19753Y138574D01*
X19674Y138494D01*
X19593Y138417D01*
X19509Y138343D01*
X19422Y138271D01*
X19334Y138203D01*
X19243Y138138D01*
X19149Y138076D01*
X19054Y138017D01*
X18956Y137961D01*
X18857Y137909D01*
X18756Y137861D01*
X18654Y137816D01*
X18549Y137774D01*
X18444Y137736D01*
X18337Y137702D01*
X18229Y137671D01*
X18121Y137644D01*
X18011Y137621D01*
X17900Y137602D01*
X17789Y137587D01*
X17678Y137575D01*
X17566Y137567D01*
X17454Y137563D01*
X17342Y137563D01*
X17230Y137567D01*
X17118Y137575D01*
X17007Y137587D01*
X16896Y137602D01*
X16785Y137621D01*
X16675Y137644D01*
X16567Y137671D01*
X16459Y137702D01*
X16352Y137736D01*
X16247Y137774D01*
X16142Y137816D01*
X16040Y137861D01*
X15939Y137909D01*
X15840Y137961D01*
X15742Y138017D01*
X15647Y138076D01*
X15553Y138138D01*
X15462Y138203D01*
X15374Y138271D01*
X15287Y138343D01*
X15203Y138417D01*
X15122Y138494D01*
X15043Y138574D01*
X14968Y138657D01*
X14895Y138742D01*
X14825Y138830D01*
X14758Y138920D01*
X14694Y139012D01*
X14634Y139106D01*
X14577Y139203D01*
X14523Y139301D01*
X14473Y139401D01*
X14426Y139503D01*
X14382Y139606D01*
X14343Y139711D01*
X14306Y139817D01*
X14274Y139925D01*
X14245Y140033D01*
X14220Y140142D01*
X14199Y140252D01*
X14182Y140363D01*
X14168Y140474D01*
X14159Y140586D01*
X14153Y140698D01*
X14151Y140810D01*
X14151Y144984D01*
X22500Y144984D01*
X22604Y144982D01*
X22708Y144976D01*
X22812Y144967D01*
X22915Y144953D01*
X23017Y144935D01*
X23119Y144914D01*
X23220Y144889D01*
X23320Y144860D01*
X23419Y144828D01*
X23517Y144792D01*
X23613Y144752D01*
X23707Y144708D01*
X23800Y144661D01*
X23892Y144611D01*
X23981Y144557D01*
X24068Y144500D01*
X24153Y144440D01*
X24235Y144377D01*
X24315Y144310D01*
X24393Y144241D01*
X24468Y144169D01*
X24540Y144094D01*
X24609Y144016D01*
X24676Y143936D01*
X24739Y143854D01*
X24799Y143769D01*
X24856Y143682D01*
X24910Y143593D01*
X24960Y143501D01*
X25007Y143408D01*
X25051Y143314D01*
X25091Y143218D01*
X25127Y143120D01*
X25159Y143021D01*
X25188Y142921D01*
X25213Y142820D01*
X25234Y142718D01*
X25252Y142616D01*
X25266Y142513D01*
X25275Y142409D01*
X25281Y142305D01*
X25283Y142201D01*
X25283Y138491D01*
X25283Y151645D02*
X25283Y157211D01*
X30849Y153500D02*
X16934Y153500D01*
X16830Y153502D01*
X16726Y153508D01*
X16622Y153517D01*
X16519Y153531D01*
X16417Y153549D01*
X16315Y153570D01*
X16214Y153595D01*
X16114Y153624D01*
X16015Y153656D01*
X15917Y153692D01*
X15821Y153732D01*
X15727Y153776D01*
X15634Y153823D01*
X15543Y153873D01*
X15453Y153927D01*
X15366Y153984D01*
X15281Y154044D01*
X15199Y154107D01*
X15119Y154174D01*
X15041Y154243D01*
X14966Y154315D01*
X14894Y154390D01*
X14825Y154468D01*
X14758Y154548D01*
X14695Y154630D01*
X14635Y154715D01*
X14578Y154802D01*
X14524Y154892D01*
X14474Y154983D01*
X14427Y155076D01*
X14383Y155170D01*
X14343Y155266D01*
X14307Y155364D01*
X14275Y155463D01*
X14246Y155563D01*
X14221Y155664D01*
X14200Y155766D01*
X14182Y155868D01*
X14168Y155971D01*
X14159Y156075D01*
X14153Y156179D01*
X14151Y156283D01*
X14151Y157211D01*
X14151Y166944D02*
X14151Y170655D01*
X14151Y166944D02*
X14153Y166840D01*
X14159Y166736D01*
X14168Y166632D01*
X14182Y166529D01*
X14200Y166427D01*
X14221Y166325D01*
X14246Y166224D01*
X14275Y166124D01*
X14307Y166025D01*
X14343Y165927D01*
X14383Y165831D01*
X14427Y165737D01*
X14474Y165644D01*
X14524Y165553D01*
X14578Y165463D01*
X14635Y165376D01*
X14695Y165291D01*
X14758Y165209D01*
X14825Y165129D01*
X14894Y165051D01*
X14966Y164976D01*
X15041Y164904D01*
X15119Y164835D01*
X15199Y164768D01*
X15281Y164705D01*
X15366Y164645D01*
X15453Y164588D01*
X15543Y164534D01*
X15634Y164484D01*
X15727Y164437D01*
X15821Y164393D01*
X15917Y164353D01*
X16015Y164317D01*
X16114Y164285D01*
X16214Y164256D01*
X16315Y164231D01*
X16417Y164210D01*
X16519Y164192D01*
X16622Y164178D01*
X16726Y164169D01*
X16830Y164163D01*
X16934Y164161D01*
X22500Y164161D01*
X22604Y164163D01*
X22708Y164169D01*
X22812Y164178D01*
X22915Y164192D01*
X23017Y164210D01*
X23119Y164231D01*
X23220Y164256D01*
X23320Y164285D01*
X23419Y164317D01*
X23517Y164353D01*
X23613Y164393D01*
X23707Y164437D01*
X23800Y164484D01*
X23891Y164534D01*
X23981Y164588D01*
X24068Y164645D01*
X24153Y164705D01*
X24235Y164768D01*
X24315Y164835D01*
X24393Y164904D01*
X24468Y164976D01*
X24540Y165051D01*
X24609Y165129D01*
X24676Y165209D01*
X24739Y165291D01*
X24799Y165376D01*
X24856Y165463D01*
X24910Y165552D01*
X24960Y165644D01*
X25007Y165737D01*
X25051Y165831D01*
X25091Y165927D01*
X25127Y166025D01*
X25159Y166124D01*
X25188Y166224D01*
X25213Y166325D01*
X25234Y166427D01*
X25252Y166529D01*
X25266Y166632D01*
X25275Y166736D01*
X25281Y166840D01*
X25283Y166944D01*
X25283Y170655D01*
X30849Y177931D02*
X14151Y177931D01*
X25283Y177931D02*
X25283Y182570D01*
X25281Y182674D01*
X25275Y182778D01*
X25266Y182882D01*
X25252Y182985D01*
X25234Y183087D01*
X25213Y183189D01*
X25188Y183290D01*
X25159Y183390D01*
X25127Y183489D01*
X25091Y183587D01*
X25051Y183683D01*
X25007Y183777D01*
X24960Y183870D01*
X24910Y183962D01*
X24856Y184051D01*
X24799Y184138D01*
X24739Y184223D01*
X24676Y184305D01*
X24609Y184385D01*
X24540Y184463D01*
X24468Y184538D01*
X24393Y184610D01*
X24315Y184679D01*
X24235Y184746D01*
X24153Y184809D01*
X24068Y184869D01*
X23981Y184926D01*
X23892Y184980D01*
X23800Y185030D01*
X23707Y185077D01*
X23613Y185121D01*
X23517Y185161D01*
X23419Y185197D01*
X23320Y185229D01*
X23220Y185258D01*
X23119Y185283D01*
X23017Y185304D01*
X22915Y185322D01*
X22812Y185336D01*
X22708Y185345D01*
X22604Y185351D01*
X22500Y185353D01*
X14151Y185353D01*
D12*
X139118Y115023D02*
X139284Y115021D01*
X139451Y115015D01*
X139617Y115005D01*
X139783Y114991D01*
X139948Y114972D01*
X140113Y114950D01*
X140278Y114924D01*
X140442Y114894D01*
X140605Y114859D01*
X140767Y114821D01*
X140928Y114779D01*
X141088Y114733D01*
X141247Y114683D01*
X141404Y114629D01*
X141560Y114572D01*
X141715Y114510D01*
X141868Y114445D01*
X142020Y114377D01*
X142170Y114304D01*
X142318Y114228D01*
X142464Y114148D01*
X142608Y114065D01*
X142750Y113978D01*
X142890Y113888D01*
X143028Y113794D01*
X143164Y113698D01*
X143297Y113597D01*
X143427Y113494D01*
X143555Y113388D01*
X143680Y113278D01*
X143803Y113165D01*
X143923Y113050D01*
X144040Y112931D01*
X144154Y112810D01*
X144265Y112686D01*
X144373Y112559D01*
X144478Y112430D01*
X144580Y112298D01*
X144678Y112164D01*
X144774Y112028D01*
X144866Y111889D01*
X144954Y111748D01*
X145039Y111605D01*
X145121Y111459D01*
X145198Y111312D01*
X145273Y111163D01*
X145343Y111012D01*
X145410Y110860D01*
X145474Y110706D01*
X145533Y110550D01*
X145589Y110394D01*
X145641Y110235D01*
X145689Y110076D01*
X145733Y109915D01*
X145773Y109754D01*
X145809Y109591D01*
X145841Y109428D01*
X145870Y109264D01*
X145894Y109099D01*
X145914Y108934D01*
X145930Y108768D01*
X145942Y108602D01*
X145950Y108436D01*
X145954Y108269D01*
X145954Y108103D01*
X145950Y107936D01*
X145942Y107770D01*
X145930Y107604D01*
X145914Y107438D01*
X145894Y107273D01*
X145870Y107108D01*
X145841Y106944D01*
X145809Y106781D01*
X145773Y106618D01*
X145733Y106457D01*
X145689Y106296D01*
X145641Y106137D01*
X145589Y105978D01*
X145533Y105822D01*
X145474Y105666D01*
X145410Y105512D01*
X145343Y105360D01*
X145273Y105209D01*
X145198Y105060D01*
X145121Y104913D01*
X145039Y104768D01*
X144954Y104624D01*
X144866Y104483D01*
X144774Y104344D01*
X144678Y104208D01*
X144580Y104074D01*
X144478Y103942D01*
X144373Y103813D01*
X144265Y103686D01*
X144154Y103562D01*
X144040Y103441D01*
X143923Y103322D01*
X143803Y103207D01*
X143680Y103094D01*
X143555Y102984D01*
X143427Y102878D01*
X143297Y102775D01*
X143164Y102674D01*
X143028Y102578D01*
X142890Y102484D01*
X142750Y102394D01*
X142608Y102307D01*
X142464Y102224D01*
X142318Y102144D01*
X142170Y102068D01*
X142020Y101995D01*
X141868Y101927D01*
X141715Y101862D01*
X141560Y101800D01*
X141404Y101743D01*
X141247Y101689D01*
X141088Y101639D01*
X140928Y101593D01*
X140767Y101551D01*
X140605Y101513D01*
X140442Y101478D01*
X140278Y101448D01*
X140113Y101422D01*
X139948Y101400D01*
X139783Y101381D01*
X139617Y101367D01*
X139451Y101357D01*
X139284Y101351D01*
X139118Y101349D01*
X138952Y101351D01*
X138785Y101357D01*
X138619Y101367D01*
X138453Y101381D01*
X138288Y101400D01*
X138123Y101422D01*
X137958Y101448D01*
X137794Y101478D01*
X137631Y101513D01*
X137469Y101551D01*
X137308Y101593D01*
X137148Y101639D01*
X136989Y101689D01*
X136832Y101743D01*
X136676Y101800D01*
X136521Y101862D01*
X136368Y101927D01*
X136216Y101995D01*
X136066Y102068D01*
X135918Y102144D01*
X135772Y102224D01*
X135628Y102307D01*
X135486Y102394D01*
X135346Y102484D01*
X135208Y102578D01*
X135072Y102674D01*
X134939Y102775D01*
X134809Y102878D01*
X134681Y102984D01*
X134556Y103094D01*
X134433Y103207D01*
X134313Y103322D01*
X134196Y103441D01*
X134082Y103562D01*
X133971Y103686D01*
X133863Y103813D01*
X133758Y103942D01*
X133656Y104074D01*
X133558Y104208D01*
X133462Y104344D01*
X133370Y104483D01*
X133282Y104624D01*
X133197Y104767D01*
X133115Y104913D01*
X133038Y105060D01*
X132963Y105209D01*
X132893Y105360D01*
X132826Y105512D01*
X132762Y105666D01*
X132703Y105822D01*
X132647Y105978D01*
X132595Y106137D01*
X132547Y106296D01*
X132503Y106457D01*
X132463Y106618D01*
X132427Y106781D01*
X132395Y106944D01*
X132366Y107108D01*
X132342Y107273D01*
X132322Y107438D01*
X132306Y107604D01*
X132294Y107770D01*
X132286Y107936D01*
X132282Y108103D01*
X132282Y108269D01*
X132286Y108436D01*
X132294Y108602D01*
X132306Y108768D01*
X132322Y108934D01*
X132342Y109099D01*
X132366Y109264D01*
X132395Y109428D01*
X132427Y109591D01*
X132463Y109754D01*
X132503Y109915D01*
X132547Y110076D01*
X132595Y110235D01*
X132647Y110394D01*
X132703Y110550D01*
X132762Y110706D01*
X132826Y110860D01*
X132893Y111012D01*
X132963Y111163D01*
X133038Y111312D01*
X133115Y111459D01*
X133197Y111605D01*
X133282Y111748D01*
X133370Y111889D01*
X133462Y112028D01*
X133558Y112164D01*
X133656Y112298D01*
X133758Y112430D01*
X133863Y112559D01*
X133971Y112686D01*
X134082Y112810D01*
X134196Y112931D01*
X134313Y113050D01*
X134433Y113165D01*
X134556Y113278D01*
X134681Y113388D01*
X134809Y113494D01*
X134939Y113597D01*
X135072Y113698D01*
X135208Y113794D01*
X135346Y113888D01*
X135486Y113978D01*
X135628Y114065D01*
X135772Y114148D01*
X135918Y114228D01*
X136066Y114304D01*
X136216Y114377D01*
X136368Y114445D01*
X136521Y114510D01*
X136676Y114572D01*
X136832Y114629D01*
X136989Y114683D01*
X137148Y114733D01*
X137308Y114779D01*
X137469Y114821D01*
X137631Y114859D01*
X137794Y114894D01*
X137958Y114924D01*
X138123Y114950D01*
X138288Y114972D01*
X138453Y114991D01*
X138619Y115005D01*
X138785Y115015D01*
X138952Y115021D01*
X139118Y115023D01*
X135901Y109794D02*
X135901Y107783D01*
X135900Y107783D02*
X135902Y107704D01*
X135908Y107625D01*
X135917Y107547D01*
X135931Y107469D01*
X135948Y107392D01*
X135969Y107316D01*
X135994Y107241D01*
X136022Y107167D01*
X136054Y107095D01*
X136090Y107025D01*
X136129Y106956D01*
X136171Y106889D01*
X136217Y106825D01*
X136265Y106762D01*
X136317Y106702D01*
X136371Y106645D01*
X136428Y106591D01*
X136488Y106539D01*
X136551Y106491D01*
X136615Y106445D01*
X136682Y106403D01*
X136751Y106364D01*
X136821Y106328D01*
X136893Y106296D01*
X136967Y106268D01*
X137042Y106243D01*
X137118Y106222D01*
X137195Y106205D01*
X137273Y106191D01*
X137351Y106182D01*
X137430Y106176D01*
X137509Y106174D01*
X137509Y106175D02*
X140727Y106175D01*
X140727Y106174D02*
X140806Y106176D01*
X140885Y106182D01*
X140963Y106191D01*
X141041Y106205D01*
X141118Y106222D01*
X141194Y106243D01*
X141269Y106268D01*
X141343Y106296D01*
X141415Y106328D01*
X141485Y106364D01*
X141554Y106403D01*
X141621Y106445D01*
X141685Y106491D01*
X141748Y106539D01*
X141808Y106591D01*
X141865Y106645D01*
X141919Y106702D01*
X141971Y106762D01*
X142019Y106825D01*
X142065Y106889D01*
X142107Y106956D01*
X142146Y107025D01*
X142182Y107095D01*
X142214Y107167D01*
X142242Y107241D01*
X142267Y107316D01*
X142288Y107392D01*
X142305Y107469D01*
X142319Y107547D01*
X142328Y107625D01*
X142334Y107704D01*
X142336Y107783D01*
X142335Y107783D02*
X142335Y109794D01*
X146357Y123051D02*
X131879Y123051D01*
X131879Y121443D02*
X131879Y124660D01*
X146357Y124660D02*
X146357Y121443D01*
X142335Y130922D02*
X135901Y130922D01*
X142335Y130922D02*
X142460Y130924D01*
X142585Y130930D01*
X142710Y130939D01*
X142834Y130953D01*
X142958Y130971D01*
X143081Y130992D01*
X143204Y131017D01*
X143326Y131046D01*
X143446Y131079D01*
X143566Y131115D01*
X143684Y131155D01*
X143802Y131199D01*
X143917Y131246D01*
X144032Y131297D01*
X144144Y131352D01*
X144255Y131410D01*
X144364Y131471D01*
X144471Y131536D01*
X144576Y131604D01*
X144679Y131675D01*
X144779Y131750D01*
X144877Y131828D01*
X144973Y131908D01*
X145066Y131992D01*
X145157Y132078D01*
X145245Y132167D01*
X145330Y132259D01*
X145412Y132353D01*
X145491Y132450D01*
X145567Y132550D01*
X145640Y132651D01*
X145709Y132755D01*
X145776Y132861D01*
X145839Y132969D01*
X145899Y133079D01*
X145955Y133191D01*
X146008Y133304D01*
X146057Y133419D01*
X146102Y133536D01*
X146144Y133654D01*
X146183Y133773D01*
X146217Y133893D01*
X146248Y134014D01*
X146275Y134136D01*
X146298Y134259D01*
X146318Y134383D01*
X146333Y134507D01*
X146345Y134632D01*
X146353Y134756D01*
X146357Y134881D01*
X146357Y135007D01*
X146353Y135132D01*
X146345Y135256D01*
X146333Y135381D01*
X146318Y135505D01*
X146298Y135629D01*
X146275Y135752D01*
X146248Y135874D01*
X146217Y135995D01*
X146183Y136115D01*
X146144Y136234D01*
X146102Y136352D01*
X146057Y136469D01*
X146008Y136584D01*
X145955Y136697D01*
X145899Y136809D01*
X145839Y136919D01*
X145776Y137027D01*
X145709Y137133D01*
X145640Y137237D01*
X145567Y137338D01*
X145491Y137438D01*
X145412Y137535D01*
X145330Y137629D01*
X145245Y137721D01*
X145157Y137810D01*
X145066Y137896D01*
X144973Y137980D01*
X144877Y138060D01*
X144779Y138138D01*
X144679Y138213D01*
X144576Y138284D01*
X144471Y138352D01*
X144364Y138417D01*
X144255Y138478D01*
X144144Y138536D01*
X144032Y138591D01*
X143917Y138642D01*
X143802Y138689D01*
X143684Y138733D01*
X143566Y138773D01*
X143446Y138809D01*
X143326Y138842D01*
X143204Y138871D01*
X143081Y138896D01*
X142958Y138917D01*
X142834Y138935D01*
X142710Y138949D01*
X142585Y138958D01*
X142460Y138964D01*
X142335Y138966D01*
X135901Y138966D01*
X135776Y138964D01*
X135651Y138958D01*
X135526Y138949D01*
X135402Y138935D01*
X135278Y138917D01*
X135155Y138896D01*
X135032Y138871D01*
X134910Y138842D01*
X134790Y138809D01*
X134670Y138773D01*
X134552Y138733D01*
X134434Y138689D01*
X134319Y138642D01*
X134204Y138591D01*
X134092Y138536D01*
X133981Y138478D01*
X133872Y138417D01*
X133765Y138352D01*
X133660Y138284D01*
X133557Y138213D01*
X133457Y138138D01*
X133359Y138060D01*
X133263Y137980D01*
X133170Y137896D01*
X133079Y137810D01*
X132991Y137721D01*
X132906Y137629D01*
X132824Y137535D01*
X132745Y137438D01*
X132669Y137338D01*
X132596Y137237D01*
X132527Y137133D01*
X132460Y137027D01*
X132397Y136919D01*
X132337Y136809D01*
X132281Y136697D01*
X132228Y136584D01*
X132179Y136469D01*
X132134Y136352D01*
X132092Y136234D01*
X132053Y136115D01*
X132019Y135995D01*
X131988Y135874D01*
X131961Y135752D01*
X131938Y135629D01*
X131918Y135505D01*
X131903Y135381D01*
X131891Y135256D01*
X131883Y135132D01*
X131879Y135007D01*
X131879Y134881D01*
X131883Y134756D01*
X131891Y134632D01*
X131903Y134507D01*
X131918Y134383D01*
X131938Y134259D01*
X131961Y134136D01*
X131988Y134014D01*
X132019Y133893D01*
X132053Y133773D01*
X132092Y133654D01*
X132134Y133536D01*
X132179Y133419D01*
X132228Y133304D01*
X132281Y133191D01*
X132337Y133079D01*
X132397Y132969D01*
X132460Y132861D01*
X132527Y132755D01*
X132596Y132651D01*
X132669Y132550D01*
X132745Y132450D01*
X132824Y132353D01*
X132906Y132259D01*
X132991Y132167D01*
X133079Y132078D01*
X133170Y131992D01*
X133263Y131908D01*
X133359Y131828D01*
X133457Y131750D01*
X133557Y131675D01*
X133660Y131604D01*
X133765Y131536D01*
X133872Y131471D01*
X133981Y131410D01*
X134092Y131352D01*
X134204Y131297D01*
X134319Y131246D01*
X134434Y131199D01*
X134552Y131155D01*
X134670Y131115D01*
X134790Y131079D01*
X134910Y131046D01*
X135032Y131017D01*
X135155Y130992D01*
X135278Y130971D01*
X135402Y130953D01*
X135526Y130939D01*
X135651Y130930D01*
X135776Y130924D01*
X135901Y130922D01*
X146358Y158140D02*
X146356Y158258D01*
X146350Y158377D01*
X146341Y158495D01*
X146327Y158613D01*
X146310Y158730D01*
X146288Y158846D01*
X146263Y158962D01*
X146235Y159077D01*
X146202Y159191D01*
X146166Y159304D01*
X146126Y159415D01*
X146082Y159525D01*
X146035Y159634D01*
X145985Y159741D01*
X145931Y159846D01*
X145873Y159950D01*
X145812Y160052D01*
X145748Y160151D01*
X145681Y160249D01*
X145610Y160344D01*
X145536Y160437D01*
X145460Y160527D01*
X145380Y160615D01*
X145298Y160700D01*
X145213Y160782D01*
X145125Y160862D01*
X145035Y160938D01*
X144942Y161012D01*
X144847Y161083D01*
X144749Y161150D01*
X144650Y161214D01*
X144548Y161275D01*
X144444Y161333D01*
X144339Y161387D01*
X144232Y161437D01*
X144123Y161484D01*
X144013Y161528D01*
X143902Y161568D01*
X143789Y161604D01*
X143675Y161637D01*
X143560Y161665D01*
X143444Y161690D01*
X143328Y161712D01*
X143211Y161729D01*
X143093Y161743D01*
X142975Y161752D01*
X142856Y161758D01*
X142738Y161760D01*
X146357Y158140D02*
X146355Y158007D01*
X146349Y157874D01*
X146340Y157742D01*
X146327Y157610D01*
X146310Y157478D01*
X146289Y157346D01*
X146264Y157216D01*
X146236Y157086D01*
X146204Y156957D01*
X146168Y156829D01*
X146129Y156702D01*
X146086Y156576D01*
X146040Y156452D01*
X145990Y156329D01*
X145936Y156207D01*
X145879Y156087D01*
X145819Y155968D01*
X145755Y155852D01*
X145688Y155737D01*
X145618Y155624D01*
X145544Y155514D01*
X145468Y155405D01*
X145388Y155299D01*
X145305Y155195D01*
X145220Y155093D01*
X145131Y154994D01*
X145040Y154897D01*
X144946Y154803D01*
X144849Y154712D01*
X144750Y154624D01*
X144648Y154538D01*
X144544Y154456D01*
X144437Y154376D01*
X144329Y154300D01*
X144218Y154226D01*
X144105Y154156D01*
X143990Y154089D01*
X143874Y154026D01*
X143755Y153965D01*
X143635Y153909D01*
X143513Y153855D01*
X143390Y153805D01*
X143266Y153759D01*
X143140Y153716D01*
X139923Y160553D02*
X140007Y160640D01*
X140095Y160723D01*
X140185Y160804D01*
X140278Y160882D01*
X140373Y160958D01*
X140470Y161030D01*
X140569Y161099D01*
X140671Y161165D01*
X140774Y161228D01*
X140880Y161287D01*
X140987Y161343D01*
X141096Y161396D01*
X141206Y161446D01*
X141318Y161492D01*
X141432Y161534D01*
X141547Y161573D01*
X141662Y161608D01*
X141779Y161640D01*
X141897Y161668D01*
X142016Y161692D01*
X142135Y161713D01*
X142255Y161730D01*
X142375Y161743D01*
X142496Y161752D01*
X142617Y161758D01*
X142738Y161760D01*
X139922Y160553D02*
X131879Y153716D01*
X131879Y161760D01*
X139118Y168582D02*
X139403Y168585D01*
X139687Y168596D01*
X139972Y168613D01*
X140256Y168636D01*
X140539Y168667D01*
X140821Y168704D01*
X141103Y168748D01*
X141383Y168799D01*
X141662Y168856D01*
X141939Y168920D01*
X142215Y168991D01*
X142489Y169068D01*
X142762Y169152D01*
X143032Y169242D01*
X143300Y169339D01*
X143565Y169442D01*
X143828Y169551D01*
X144089Y169667D01*
X144346Y169789D01*
X144448Y169826D01*
X144549Y169867D01*
X144648Y169911D01*
X144745Y169959D01*
X144841Y170011D01*
X144935Y170066D01*
X145026Y170124D01*
X145115Y170186D01*
X145203Y170251D01*
X145287Y170319D01*
X145369Y170390D01*
X145449Y170464D01*
X145525Y170540D01*
X145599Y170620D01*
X145670Y170702D01*
X145738Y170787D01*
X145803Y170874D01*
X145864Y170964D01*
X145922Y171055D01*
X145977Y171149D01*
X146028Y171245D01*
X146076Y171342D01*
X146121Y171441D01*
X146161Y171542D01*
X146198Y171644D01*
X146231Y171748D01*
X146260Y171852D01*
X146286Y171958D01*
X146308Y172064D01*
X146325Y172171D01*
X146339Y172279D01*
X146349Y172387D01*
X146355Y172495D01*
X146357Y172604D01*
X146355Y172713D01*
X146349Y172821D01*
X146339Y172929D01*
X146325Y173037D01*
X146308Y173144D01*
X146286Y173250D01*
X146260Y173356D01*
X146231Y173460D01*
X146198Y173564D01*
X146161Y173666D01*
X146121Y173767D01*
X146076Y173866D01*
X146028Y173963D01*
X145977Y174059D01*
X145922Y174153D01*
X145864Y174244D01*
X145803Y174334D01*
X145738Y174421D01*
X145670Y174506D01*
X145599Y174588D01*
X145525Y174668D01*
X145449Y174744D01*
X145369Y174818D01*
X145287Y174889D01*
X145202Y174957D01*
X145115Y175022D01*
X145026Y175084D01*
X144934Y175142D01*
X144841Y175197D01*
X144745Y175249D01*
X144648Y175297D01*
X144549Y175341D01*
X144448Y175382D01*
X144346Y175419D01*
X144089Y175541D01*
X143828Y175657D01*
X143565Y175766D01*
X143300Y175869D01*
X143032Y175966D01*
X142762Y176056D01*
X142489Y176140D01*
X142215Y176217D01*
X141939Y176288D01*
X141662Y176352D01*
X141383Y176409D01*
X141103Y176460D01*
X140821Y176504D01*
X140539Y176541D01*
X140256Y176572D01*
X139972Y176595D01*
X139687Y176612D01*
X139403Y176623D01*
X139118Y176626D01*
X139118Y168582D02*
X138833Y168585D01*
X138549Y168596D01*
X138264Y168613D01*
X137980Y168636D01*
X137697Y168667D01*
X137415Y168704D01*
X137133Y168748D01*
X136853Y168799D01*
X136574Y168856D01*
X136297Y168920D01*
X136021Y168991D01*
X135747Y169068D01*
X135474Y169152D01*
X135204Y169242D01*
X134936Y169339D01*
X134671Y169442D01*
X134408Y169551D01*
X134147Y169667D01*
X133890Y169788D01*
X133890Y169789D02*
X133788Y169826D01*
X133687Y169867D01*
X133588Y169911D01*
X133491Y169959D01*
X133395Y170011D01*
X133301Y170066D01*
X133210Y170124D01*
X133121Y170186D01*
X133033Y170251D01*
X132949Y170319D01*
X132867Y170390D01*
X132787Y170464D01*
X132711Y170540D01*
X132637Y170620D01*
X132566Y170702D01*
X132498Y170787D01*
X132433Y170874D01*
X132372Y170964D01*
X132314Y171055D01*
X132259Y171149D01*
X132208Y171245D01*
X132160Y171342D01*
X132115Y171441D01*
X132075Y171542D01*
X132038Y171644D01*
X132005Y171748D01*
X131976Y171852D01*
X131950Y171958D01*
X131928Y172064D01*
X131911Y172171D01*
X131897Y172279D01*
X131887Y172387D01*
X131881Y172495D01*
X131879Y172604D01*
X133890Y175419D02*
X134147Y175540D01*
X134408Y175656D01*
X134671Y175765D01*
X134936Y175868D01*
X135204Y175965D01*
X135474Y176055D01*
X135747Y176139D01*
X136021Y176216D01*
X136297Y176287D01*
X136574Y176351D01*
X136853Y176408D01*
X137133Y176459D01*
X137415Y176503D01*
X137697Y176540D01*
X137980Y176571D01*
X138264Y176594D01*
X138549Y176611D01*
X138833Y176622D01*
X139118Y176625D01*
X133890Y175419D02*
X133788Y175382D01*
X133687Y175341D01*
X133588Y175297D01*
X133491Y175249D01*
X133395Y175197D01*
X133301Y175142D01*
X133210Y175084D01*
X133121Y175022D01*
X133034Y174957D01*
X132949Y174889D01*
X132867Y174818D01*
X132787Y174744D01*
X132711Y174668D01*
X132637Y174588D01*
X132566Y174506D01*
X132498Y174421D01*
X132433Y174334D01*
X132372Y174244D01*
X132314Y174153D01*
X132259Y174059D01*
X132208Y173963D01*
X132160Y173866D01*
X132115Y173767D01*
X132075Y173666D01*
X132038Y173564D01*
X132005Y173460D01*
X131976Y173356D01*
X131950Y173250D01*
X131928Y173144D01*
X131911Y173037D01*
X131897Y172929D01*
X131887Y172821D01*
X131881Y172713D01*
X131879Y172604D01*
X135096Y169387D02*
X143140Y175821D01*
X146358Y187872D02*
X146356Y187990D01*
X146350Y188109D01*
X146341Y188227D01*
X146327Y188345D01*
X146310Y188462D01*
X146288Y188578D01*
X146263Y188694D01*
X146235Y188809D01*
X146202Y188923D01*
X146166Y189036D01*
X146126Y189147D01*
X146082Y189257D01*
X146035Y189366D01*
X145985Y189473D01*
X145931Y189578D01*
X145873Y189682D01*
X145812Y189784D01*
X145748Y189883D01*
X145681Y189981D01*
X145610Y190076D01*
X145536Y190169D01*
X145460Y190259D01*
X145380Y190347D01*
X145298Y190432D01*
X145213Y190514D01*
X145125Y190594D01*
X145035Y190670D01*
X144942Y190744D01*
X144847Y190815D01*
X144749Y190882D01*
X144650Y190946D01*
X144548Y191007D01*
X144444Y191065D01*
X144339Y191119D01*
X144232Y191169D01*
X144123Y191216D01*
X144013Y191260D01*
X143902Y191300D01*
X143789Y191336D01*
X143675Y191369D01*
X143560Y191397D01*
X143444Y191422D01*
X143328Y191444D01*
X143211Y191461D01*
X143093Y191475D01*
X142975Y191484D01*
X142856Y191490D01*
X142738Y191492D01*
X146357Y187872D02*
X146355Y187739D01*
X146349Y187606D01*
X146340Y187474D01*
X146327Y187342D01*
X146310Y187210D01*
X146289Y187078D01*
X146264Y186948D01*
X146236Y186818D01*
X146204Y186689D01*
X146168Y186561D01*
X146129Y186434D01*
X146086Y186308D01*
X146040Y186184D01*
X145990Y186061D01*
X145936Y185939D01*
X145879Y185819D01*
X145819Y185700D01*
X145755Y185584D01*
X145688Y185469D01*
X145618Y185356D01*
X145544Y185246D01*
X145468Y185137D01*
X145388Y185031D01*
X145305Y184927D01*
X145220Y184825D01*
X145131Y184726D01*
X145040Y184629D01*
X144946Y184535D01*
X144849Y184444D01*
X144750Y184356D01*
X144648Y184270D01*
X144544Y184188D01*
X144437Y184108D01*
X144329Y184032D01*
X144218Y183958D01*
X144105Y183888D01*
X143990Y183821D01*
X143874Y183758D01*
X143755Y183697D01*
X143635Y183641D01*
X143513Y183587D01*
X143390Y183537D01*
X143266Y183491D01*
X143140Y183448D01*
X139923Y190285D02*
X140007Y190372D01*
X140095Y190455D01*
X140185Y190536D01*
X140278Y190614D01*
X140373Y190690D01*
X140470Y190762D01*
X140569Y190831D01*
X140671Y190897D01*
X140774Y190960D01*
X140880Y191019D01*
X140987Y191075D01*
X141096Y191128D01*
X141206Y191178D01*
X141318Y191224D01*
X141432Y191266D01*
X141547Y191305D01*
X141662Y191340D01*
X141779Y191372D01*
X141897Y191400D01*
X142016Y191424D01*
X142135Y191445D01*
X142255Y191462D01*
X142375Y191475D01*
X142496Y191484D01*
X142617Y191490D01*
X142738Y191492D01*
X139922Y190285D02*
X131879Y183448D01*
X131879Y191491D01*
X139118Y198314D02*
X139403Y198317D01*
X139687Y198328D01*
X139972Y198345D01*
X140256Y198368D01*
X140539Y198399D01*
X140821Y198436D01*
X141103Y198480D01*
X141383Y198531D01*
X141662Y198588D01*
X141939Y198652D01*
X142215Y198723D01*
X142489Y198800D01*
X142762Y198884D01*
X143032Y198974D01*
X143300Y199071D01*
X143565Y199174D01*
X143828Y199283D01*
X144089Y199399D01*
X144346Y199521D01*
X144346Y199520D02*
X144448Y199557D01*
X144549Y199598D01*
X144648Y199642D01*
X144745Y199690D01*
X144841Y199742D01*
X144935Y199797D01*
X145026Y199855D01*
X145115Y199917D01*
X145203Y199982D01*
X145287Y200050D01*
X145369Y200121D01*
X145449Y200195D01*
X145525Y200271D01*
X145599Y200351D01*
X145670Y200433D01*
X145738Y200518D01*
X145803Y200605D01*
X145864Y200695D01*
X145922Y200786D01*
X145977Y200880D01*
X146028Y200976D01*
X146076Y201073D01*
X146121Y201172D01*
X146161Y201273D01*
X146198Y201375D01*
X146231Y201479D01*
X146260Y201583D01*
X146286Y201689D01*
X146308Y201795D01*
X146325Y201902D01*
X146339Y202010D01*
X146349Y202118D01*
X146355Y202226D01*
X146357Y202335D01*
X146355Y202444D01*
X146349Y202552D01*
X146339Y202660D01*
X146325Y202768D01*
X146308Y202875D01*
X146286Y202981D01*
X146260Y203087D01*
X146231Y203191D01*
X146198Y203295D01*
X146161Y203397D01*
X146121Y203498D01*
X146076Y203597D01*
X146028Y203694D01*
X145977Y203790D01*
X145922Y203884D01*
X145864Y203975D01*
X145803Y204065D01*
X145738Y204152D01*
X145670Y204237D01*
X145599Y204319D01*
X145525Y204399D01*
X145449Y204475D01*
X145369Y204549D01*
X145287Y204620D01*
X145202Y204688D01*
X145115Y204753D01*
X145026Y204815D01*
X144934Y204873D01*
X144841Y204928D01*
X144745Y204980D01*
X144648Y205028D01*
X144549Y205072D01*
X144448Y205113D01*
X144346Y205150D01*
X144089Y205272D01*
X143828Y205388D01*
X143565Y205497D01*
X143300Y205600D01*
X143032Y205697D01*
X142762Y205787D01*
X142489Y205871D01*
X142215Y205948D01*
X141939Y206019D01*
X141662Y206083D01*
X141383Y206140D01*
X141103Y206191D01*
X140821Y206235D01*
X140539Y206272D01*
X140256Y206303D01*
X139972Y206326D01*
X139687Y206343D01*
X139403Y206354D01*
X139118Y206357D01*
X139118Y198314D02*
X138833Y198317D01*
X138549Y198328D01*
X138264Y198345D01*
X137980Y198368D01*
X137697Y198399D01*
X137415Y198436D01*
X137133Y198480D01*
X136853Y198531D01*
X136574Y198588D01*
X136297Y198652D01*
X136021Y198723D01*
X135747Y198800D01*
X135474Y198884D01*
X135204Y198974D01*
X134936Y199071D01*
X134671Y199174D01*
X134408Y199283D01*
X134147Y199399D01*
X133890Y199520D01*
X133788Y199557D01*
X133687Y199598D01*
X133588Y199642D01*
X133491Y199690D01*
X133395Y199742D01*
X133301Y199797D01*
X133210Y199855D01*
X133121Y199917D01*
X133033Y199982D01*
X132949Y200050D01*
X132867Y200121D01*
X132787Y200195D01*
X132711Y200271D01*
X132637Y200351D01*
X132566Y200433D01*
X132498Y200518D01*
X132433Y200605D01*
X132372Y200695D01*
X132314Y200786D01*
X132259Y200880D01*
X132208Y200976D01*
X132160Y201073D01*
X132115Y201172D01*
X132075Y201273D01*
X132038Y201375D01*
X132005Y201479D01*
X131976Y201583D01*
X131950Y201689D01*
X131928Y201795D01*
X131911Y201902D01*
X131897Y202010D01*
X131887Y202118D01*
X131881Y202226D01*
X131879Y202335D01*
X133890Y205151D02*
X134147Y205272D01*
X134408Y205388D01*
X134671Y205497D01*
X134936Y205600D01*
X135204Y205697D01*
X135474Y205787D01*
X135747Y205871D01*
X136021Y205948D01*
X136297Y206019D01*
X136574Y206083D01*
X136853Y206140D01*
X137133Y206191D01*
X137415Y206235D01*
X137697Y206272D01*
X137980Y206303D01*
X138264Y206326D01*
X138549Y206343D01*
X138833Y206354D01*
X139118Y206357D01*
X133890Y205150D02*
X133788Y205113D01*
X133687Y205072D01*
X133588Y205028D01*
X133491Y204980D01*
X133395Y204928D01*
X133301Y204873D01*
X133210Y204815D01*
X133121Y204753D01*
X133034Y204688D01*
X132949Y204620D01*
X132867Y204549D01*
X132787Y204475D01*
X132711Y204399D01*
X132637Y204319D01*
X132566Y204237D01*
X132498Y204152D01*
X132433Y204065D01*
X132372Y203975D01*
X132314Y203884D01*
X132259Y203790D01*
X132208Y203694D01*
X132160Y203597D01*
X132115Y203498D01*
X132075Y203397D01*
X132038Y203295D01*
X132005Y203191D01*
X131976Y203087D01*
X131950Y202981D01*
X131928Y202875D01*
X131911Y202768D01*
X131897Y202660D01*
X131887Y202552D01*
X131881Y202444D01*
X131879Y202335D01*
X135096Y199118D02*
X143140Y205553D01*
X121531Y104812D02*
X111879Y104812D01*
X121531Y104812D02*
X121531Y109638D01*
X119922Y109638D01*
X111879Y117023D02*
X111879Y121045D01*
X111879Y117023D02*
X111881Y116926D01*
X111887Y116829D01*
X111897Y116732D01*
X111910Y116636D01*
X111928Y116540D01*
X111949Y116446D01*
X111974Y116352D01*
X112003Y116259D01*
X112036Y116167D01*
X112072Y116077D01*
X112112Y115989D01*
X112155Y115902D01*
X112202Y115817D01*
X112253Y115733D01*
X112306Y115652D01*
X112363Y115573D01*
X112423Y115497D01*
X112486Y115423D01*
X112552Y115351D01*
X112620Y115283D01*
X112692Y115217D01*
X112766Y115154D01*
X112842Y115094D01*
X112921Y115037D01*
X113002Y114984D01*
X113085Y114933D01*
X113171Y114886D01*
X113258Y114843D01*
X113346Y114803D01*
X113436Y114767D01*
X113528Y114734D01*
X113621Y114705D01*
X113715Y114680D01*
X113809Y114659D01*
X113905Y114641D01*
X114001Y114628D01*
X114098Y114618D01*
X114195Y114612D01*
X114292Y114610D01*
X118314Y114610D01*
X118314Y114611D02*
X118426Y114613D01*
X118538Y114619D01*
X118650Y114629D01*
X118762Y114642D01*
X118873Y114660D01*
X118983Y114681D01*
X119092Y114707D01*
X119201Y114736D01*
X119308Y114768D01*
X119414Y114805D01*
X119519Y114845D01*
X119622Y114889D01*
X119724Y114937D01*
X119824Y114988D01*
X119922Y115042D01*
X120019Y115100D01*
X120113Y115161D01*
X120205Y115225D01*
X120295Y115293D01*
X120382Y115364D01*
X120467Y115437D01*
X120549Y115514D01*
X120628Y115593D01*
X120705Y115675D01*
X120778Y115760D01*
X120849Y115847D01*
X120917Y115937D01*
X120981Y116029D01*
X121042Y116123D01*
X121100Y116219D01*
X121154Y116318D01*
X121205Y116418D01*
X121253Y116520D01*
X121297Y116623D01*
X121337Y116728D01*
X121374Y116834D01*
X121406Y116941D01*
X121435Y117050D01*
X121461Y117159D01*
X121482Y117269D01*
X121500Y117380D01*
X121513Y117492D01*
X121523Y117604D01*
X121529Y117716D01*
X121531Y117828D01*
X121529Y117940D01*
X121523Y118052D01*
X121513Y118164D01*
X121500Y118276D01*
X121482Y118387D01*
X121461Y118497D01*
X121435Y118606D01*
X121406Y118715D01*
X121374Y118822D01*
X121337Y118928D01*
X121297Y119033D01*
X121253Y119136D01*
X121205Y119238D01*
X121154Y119338D01*
X121100Y119436D01*
X121042Y119533D01*
X120981Y119627D01*
X120917Y119719D01*
X120849Y119809D01*
X120778Y119896D01*
X120705Y119981D01*
X120628Y120063D01*
X120549Y120142D01*
X120467Y120219D01*
X120382Y120292D01*
X120295Y120363D01*
X120205Y120431D01*
X120113Y120495D01*
X120019Y120556D01*
X119923Y120614D01*
X119824Y120668D01*
X119724Y120719D01*
X119622Y120767D01*
X119519Y120811D01*
X119414Y120851D01*
X119308Y120888D01*
X119201Y120920D01*
X119092Y120949D01*
X118983Y120975D01*
X118873Y120996D01*
X118762Y121014D01*
X118650Y121027D01*
X118538Y121037D01*
X118426Y121043D01*
X118314Y121045D01*
X116705Y121045D01*
X116705Y114610D01*
X121531Y126998D02*
X111879Y130216D01*
X121531Y133433D01*
X123140Y147502D02*
X126357Y151523D01*
X111879Y151523D01*
X111879Y147502D02*
X111879Y155545D01*
X111879Y161527D02*
X112683Y161527D01*
X112683Y162332D01*
X111879Y162332D01*
X111879Y161527D01*
X123140Y168314D02*
X126357Y172335D01*
X111879Y172335D01*
X111879Y168314D02*
X111879Y176357D01*
D13*
X64262Y65141D02*
X64262Y62262D01*
X64262Y65141D02*
X64264Y65227D01*
X64270Y65313D01*
X64279Y65399D01*
X64293Y65484D01*
X64310Y65568D01*
X64331Y65652D01*
X64356Y65734D01*
X64384Y65815D01*
X64416Y65895D01*
X64452Y65974D01*
X64491Y66050D01*
X64534Y66125D01*
X64579Y66198D01*
X64629Y66269D01*
X64681Y66337D01*
X64736Y66404D01*
X64794Y66467D01*
X64855Y66528D01*
X64918Y66586D01*
X64985Y66641D01*
X65053Y66694D01*
X65124Y66743D01*
X65197Y66788D01*
X65272Y66831D01*
X65348Y66870D01*
X65427Y66906D01*
X65507Y66938D01*
X65588Y66966D01*
X65671Y66991D01*
X65754Y67012D01*
X65838Y67029D01*
X65923Y67043D01*
X66009Y67052D01*
X66095Y67058D01*
X66181Y67060D01*
X67141Y67060D01*
X67227Y67058D01*
X67313Y67052D01*
X67399Y67043D01*
X67484Y67029D01*
X67568Y67012D01*
X67652Y66991D01*
X67734Y66966D01*
X67815Y66938D01*
X67895Y66906D01*
X67974Y66870D01*
X68050Y66831D01*
X68125Y66788D01*
X68198Y66743D01*
X68269Y66694D01*
X68337Y66641D01*
X68404Y66586D01*
X68467Y66528D01*
X68528Y66467D01*
X68586Y66404D01*
X68641Y66337D01*
X68694Y66269D01*
X68743Y66198D01*
X68788Y66125D01*
X68831Y66050D01*
X68870Y65974D01*
X68906Y65895D01*
X68938Y65815D01*
X68966Y65734D01*
X68991Y65652D01*
X69012Y65568D01*
X69029Y65484D01*
X69043Y65399D01*
X69052Y65313D01*
X69058Y65227D01*
X69060Y65141D01*
X69060Y62262D01*
X72898Y62262D01*
X72898Y67060D01*
X72898Y70926D02*
X64262Y73805D01*
X72898Y76684D01*
X88262Y50661D02*
X88262Y48262D01*
X88262Y50661D02*
X88264Y50758D01*
X88270Y50854D01*
X88279Y50950D01*
X88293Y51046D01*
X88310Y51141D01*
X88332Y51235D01*
X88357Y51328D01*
X88385Y51421D01*
X88418Y51512D01*
X88454Y51601D01*
X88494Y51689D01*
X88537Y51776D01*
X88583Y51861D01*
X88633Y51943D01*
X88687Y52024D01*
X88743Y52102D01*
X88803Y52178D01*
X88865Y52252D01*
X88931Y52323D01*
X88999Y52391D01*
X89070Y52457D01*
X89144Y52519D01*
X89220Y52579D01*
X89298Y52635D01*
X89379Y52689D01*
X89462Y52739D01*
X89546Y52785D01*
X89633Y52828D01*
X89721Y52868D01*
X89810Y52904D01*
X89901Y52937D01*
X89994Y52965D01*
X90087Y52990D01*
X90181Y53012D01*
X90276Y53029D01*
X90372Y53043D01*
X90468Y53052D01*
X90564Y53058D01*
X90661Y53060D01*
X90758Y53058D01*
X90854Y53052D01*
X90950Y53043D01*
X91046Y53029D01*
X91141Y53012D01*
X91235Y52990D01*
X91328Y52965D01*
X91421Y52937D01*
X91512Y52904D01*
X91601Y52868D01*
X91689Y52828D01*
X91776Y52785D01*
X91861Y52739D01*
X91943Y52689D01*
X92024Y52635D01*
X92102Y52579D01*
X92178Y52519D01*
X92252Y52457D01*
X92323Y52391D01*
X92391Y52323D01*
X92457Y52252D01*
X92519Y52178D01*
X92579Y52102D01*
X92635Y52024D01*
X92689Y51943D01*
X92739Y51861D01*
X92785Y51776D01*
X92828Y51689D01*
X92868Y51601D01*
X92904Y51512D01*
X92937Y51421D01*
X92965Y51328D01*
X92990Y51235D01*
X93012Y51141D01*
X93029Y51046D01*
X93043Y50950D01*
X93052Y50854D01*
X93058Y50758D01*
X93060Y50661D01*
X96898Y51141D02*
X96898Y48262D01*
X96898Y51141D02*
X96896Y51227D01*
X96890Y51313D01*
X96881Y51399D01*
X96867Y51484D01*
X96850Y51568D01*
X96829Y51652D01*
X96804Y51734D01*
X96776Y51815D01*
X96744Y51895D01*
X96708Y51974D01*
X96669Y52050D01*
X96626Y52125D01*
X96581Y52198D01*
X96532Y52269D01*
X96479Y52337D01*
X96424Y52404D01*
X96366Y52467D01*
X96305Y52528D01*
X96242Y52586D01*
X96175Y52641D01*
X96107Y52694D01*
X96036Y52743D01*
X95963Y52788D01*
X95888Y52831D01*
X95812Y52870D01*
X95733Y52906D01*
X95653Y52938D01*
X95572Y52966D01*
X95490Y52991D01*
X95406Y53012D01*
X95322Y53029D01*
X95237Y53043D01*
X95151Y53052D01*
X95065Y53058D01*
X94979Y53060D01*
X94893Y53058D01*
X94807Y53052D01*
X94721Y53043D01*
X94636Y53029D01*
X94552Y53012D01*
X94468Y52991D01*
X94386Y52966D01*
X94305Y52938D01*
X94225Y52906D01*
X94146Y52870D01*
X94070Y52831D01*
X93995Y52788D01*
X93922Y52743D01*
X93851Y52694D01*
X93783Y52641D01*
X93716Y52586D01*
X93653Y52528D01*
X93592Y52467D01*
X93534Y52404D01*
X93479Y52337D01*
X93426Y52269D01*
X93377Y52198D01*
X93332Y52125D01*
X93289Y52050D01*
X93250Y51974D01*
X93214Y51895D01*
X93182Y51815D01*
X93154Y51734D01*
X93129Y51652D01*
X93108Y51568D01*
X93091Y51484D01*
X93077Y51399D01*
X93068Y51313D01*
X93062Y51227D01*
X93060Y51141D01*
X93060Y49222D01*
X88742Y56822D02*
X88262Y56822D01*
X88742Y56822D02*
X88742Y57302D01*
X88262Y57302D01*
X88262Y56822D01*
X88262Y61064D02*
X88262Y63462D01*
X88264Y63559D01*
X88270Y63655D01*
X88279Y63751D01*
X88293Y63847D01*
X88310Y63942D01*
X88332Y64036D01*
X88357Y64129D01*
X88385Y64222D01*
X88418Y64313D01*
X88454Y64402D01*
X88494Y64490D01*
X88537Y64577D01*
X88583Y64662D01*
X88633Y64744D01*
X88687Y64825D01*
X88743Y64903D01*
X88803Y64979D01*
X88865Y65053D01*
X88931Y65124D01*
X88999Y65192D01*
X89070Y65258D01*
X89144Y65320D01*
X89220Y65380D01*
X89298Y65436D01*
X89379Y65490D01*
X89462Y65540D01*
X89546Y65586D01*
X89633Y65629D01*
X89721Y65669D01*
X89810Y65705D01*
X89901Y65738D01*
X89994Y65766D01*
X90087Y65791D01*
X90181Y65813D01*
X90276Y65830D01*
X90372Y65844D01*
X90468Y65853D01*
X90564Y65859D01*
X90661Y65861D01*
X90758Y65859D01*
X90854Y65853D01*
X90950Y65844D01*
X91046Y65830D01*
X91141Y65813D01*
X91235Y65791D01*
X91328Y65766D01*
X91421Y65738D01*
X91512Y65705D01*
X91601Y65669D01*
X91689Y65629D01*
X91776Y65586D01*
X91861Y65540D01*
X91943Y65490D01*
X92024Y65436D01*
X92102Y65380D01*
X92178Y65320D01*
X92252Y65258D01*
X92323Y65192D01*
X92391Y65124D01*
X92457Y65053D01*
X92519Y64979D01*
X92579Y64903D01*
X92635Y64825D01*
X92689Y64744D01*
X92739Y64662D01*
X92785Y64577D01*
X92828Y64490D01*
X92868Y64402D01*
X92904Y64313D01*
X92937Y64222D01*
X92965Y64129D01*
X92990Y64036D01*
X93012Y63942D01*
X93029Y63847D01*
X93043Y63751D01*
X93052Y63655D01*
X93058Y63559D01*
X93060Y63462D01*
X96898Y63942D02*
X96898Y61064D01*
X96898Y63942D02*
X96896Y64028D01*
X96890Y64114D01*
X96881Y64200D01*
X96867Y64285D01*
X96850Y64369D01*
X96829Y64453D01*
X96804Y64535D01*
X96776Y64616D01*
X96744Y64696D01*
X96708Y64775D01*
X96669Y64851D01*
X96626Y64926D01*
X96581Y64999D01*
X96532Y65070D01*
X96479Y65138D01*
X96424Y65205D01*
X96366Y65268D01*
X96305Y65329D01*
X96242Y65387D01*
X96175Y65442D01*
X96107Y65495D01*
X96036Y65544D01*
X95963Y65589D01*
X95888Y65632D01*
X95812Y65671D01*
X95733Y65707D01*
X95653Y65739D01*
X95572Y65767D01*
X95490Y65792D01*
X95406Y65813D01*
X95322Y65830D01*
X95237Y65844D01*
X95151Y65853D01*
X95065Y65859D01*
X94979Y65861D01*
X94893Y65859D01*
X94807Y65853D01*
X94721Y65844D01*
X94636Y65830D01*
X94552Y65813D01*
X94468Y65792D01*
X94386Y65767D01*
X94305Y65739D01*
X94225Y65707D01*
X94146Y65671D01*
X94070Y65632D01*
X93995Y65589D01*
X93922Y65544D01*
X93851Y65495D01*
X93783Y65442D01*
X93716Y65387D01*
X93653Y65329D01*
X93592Y65268D01*
X93534Y65205D01*
X93479Y65138D01*
X93426Y65070D01*
X93377Y64999D01*
X93332Y64926D01*
X93289Y64851D01*
X93250Y64775D01*
X93214Y64696D01*
X93182Y64616D01*
X93154Y64535D01*
X93129Y64453D01*
X93108Y64369D01*
X93091Y64285D01*
X93077Y64200D01*
X93068Y64114D01*
X93062Y64028D01*
X93060Y63942D01*
X93060Y62023D01*
X96898Y69728D02*
X88262Y72606D01*
X96898Y75485D01*
X92700Y100160D02*
X67300Y100160D01*
X92700Y79840D02*
X92800Y79842D01*
X92899Y79848D01*
X92999Y79858D01*
X93097Y79871D01*
X93196Y79889D01*
X93293Y79910D01*
X93389Y79935D01*
X93485Y79964D01*
X93579Y79997D01*
X93672Y80033D01*
X93763Y80073D01*
X93853Y80117D01*
X93941Y80164D01*
X94027Y80214D01*
X94111Y80268D01*
X94193Y80325D01*
X94272Y80385D01*
X94350Y80449D01*
X94424Y80515D01*
X94496Y80584D01*
X94565Y80656D01*
X94631Y80730D01*
X94695Y80808D01*
X94755Y80887D01*
X94812Y80969D01*
X94866Y81053D01*
X94916Y81139D01*
X94963Y81227D01*
X95007Y81317D01*
X95047Y81408D01*
X95083Y81501D01*
X95116Y81595D01*
X95145Y81691D01*
X95170Y81787D01*
X95191Y81884D01*
X95209Y81983D01*
X95222Y82081D01*
X95232Y82181D01*
X95238Y82280D01*
X95240Y82380D01*
X67300Y79840D02*
X67200Y79842D01*
X67101Y79848D01*
X67001Y79858D01*
X66903Y79871D01*
X66804Y79889D01*
X66707Y79910D01*
X66611Y79935D01*
X66515Y79964D01*
X66421Y79997D01*
X66328Y80033D01*
X66237Y80073D01*
X66147Y80117D01*
X66059Y80164D01*
X65973Y80214D01*
X65889Y80268D01*
X65807Y80325D01*
X65728Y80385D01*
X65650Y80449D01*
X65576Y80515D01*
X65504Y80584D01*
X65435Y80656D01*
X65369Y80730D01*
X65305Y80808D01*
X65245Y80887D01*
X65188Y80969D01*
X65134Y81053D01*
X65084Y81139D01*
X65037Y81227D01*
X64993Y81317D01*
X64953Y81408D01*
X64917Y81501D01*
X64884Y81595D01*
X64855Y81691D01*
X64830Y81787D01*
X64809Y81884D01*
X64791Y81983D01*
X64778Y82081D01*
X64768Y82181D01*
X64762Y82280D01*
X64760Y82380D01*
X64760Y97620D02*
X64762Y97720D01*
X64768Y97819D01*
X64778Y97919D01*
X64791Y98017D01*
X64809Y98116D01*
X64830Y98213D01*
X64855Y98309D01*
X64884Y98405D01*
X64917Y98499D01*
X64953Y98592D01*
X64993Y98683D01*
X65037Y98773D01*
X65084Y98861D01*
X65134Y98947D01*
X65188Y99031D01*
X65245Y99113D01*
X65305Y99192D01*
X65369Y99270D01*
X65435Y99344D01*
X65504Y99416D01*
X65576Y99485D01*
X65650Y99551D01*
X65728Y99615D01*
X65807Y99675D01*
X65889Y99732D01*
X65973Y99786D01*
X66059Y99836D01*
X66147Y99883D01*
X66237Y99927D01*
X66328Y99967D01*
X66421Y100003D01*
X66515Y100036D01*
X66611Y100065D01*
X66707Y100090D01*
X66804Y100111D01*
X66903Y100129D01*
X67001Y100142D01*
X67101Y100152D01*
X67200Y100158D01*
X67300Y100160D01*
X92700Y100160D02*
X92800Y100158D01*
X92899Y100152D01*
X92999Y100142D01*
X93097Y100129D01*
X93196Y100111D01*
X93293Y100090D01*
X93389Y100065D01*
X93485Y100036D01*
X93579Y100003D01*
X93672Y99967D01*
X93763Y99927D01*
X93853Y99883D01*
X93941Y99836D01*
X94027Y99786D01*
X94111Y99732D01*
X94193Y99675D01*
X94272Y99615D01*
X94350Y99551D01*
X94424Y99485D01*
X94496Y99416D01*
X94565Y99344D01*
X94631Y99270D01*
X94695Y99192D01*
X94755Y99113D01*
X94812Y99031D01*
X94866Y98947D01*
X94916Y98861D01*
X94963Y98773D01*
X95007Y98683D01*
X95047Y98592D01*
X95083Y98499D01*
X95116Y98405D01*
X95145Y98309D01*
X95170Y98213D01*
X95191Y98116D01*
X95209Y98017D01*
X95222Y97919D01*
X95232Y97819D01*
X95238Y97720D01*
X95240Y97620D01*
X95240Y82380D01*
X64760Y82380D02*
X64760Y97620D01*
X67300Y79840D02*
X92700Y79840D01*
M02*
