G04 EAGLE Gerber RS-274X export*
G75*
%MOMM*%
%FSLAX34Y34*%
%LPD*%
%INSolderpaste Top*%
%IPPOS*%
%AMOC8*
5,1,8,0,0,1.08239X$1,22.5*%
G01*
%ADD10R,1.000000X1.100000*%
%ADD11R,0.800000X0.800000*%
%ADD12R,0.400000X1.500000*%
%ADD13R,2.000000X4.000000*%
%ADD14R,2.500000X1.000000*%
%ADD15R,1.397000X0.348000*%
%ADD16R,0.800000X2.500000*%


D10*
X27500Y189000D03*
X27500Y206000D03*
X15000Y136000D03*
X15000Y119000D03*
X12500Y189000D03*
X12500Y206000D03*
D11*
X12500Y170000D03*
X12500Y155000D03*
X27500Y155000D03*
X27500Y170000D03*
D12*
X80000Y42500D03*
X73500Y42500D03*
X86500Y42500D03*
X93000Y42500D03*
X67000Y42500D03*
D13*
X36500Y37000D03*
X124500Y36500D03*
D14*
X59500Y8500D03*
X101000Y8500D03*
D10*
X140000Y118500D03*
X140000Y101500D03*
X140000Y141500D03*
X140000Y158500D03*
D15*
X43440Y107750D03*
X43440Y114250D03*
X43440Y120750D03*
X43440Y127250D03*
X43440Y133750D03*
X43440Y140250D03*
X43440Y146750D03*
X43440Y159750D03*
X43440Y153250D03*
X43440Y166250D03*
X43440Y172750D03*
X43440Y179250D03*
X43440Y185750D03*
X43440Y192250D03*
X116560Y107750D03*
X116560Y114250D03*
X116560Y120750D03*
X116560Y127250D03*
X116560Y133750D03*
X116560Y140250D03*
X116560Y146750D03*
X116560Y153250D03*
X116560Y159750D03*
X116560Y166250D03*
X116560Y172750D03*
X116560Y179250D03*
X116560Y185750D03*
X116560Y192250D03*
D16*
X87770Y230500D03*
X67230Y230500D03*
X113008Y230500D03*
X42500Y230500D03*
D10*
X139500Y204000D03*
X139500Y221000D03*
D11*
X140500Y174000D03*
X140500Y189000D03*
M02*
