G04 EAGLE Gerber RS-274X export*
G75*
%MOMM*%
%FSLAX34Y34*%
%LPD*%
%INSoldermask Top*%
%IPPOS*%
%AMOC8*
5,1,8,0,0,1.08239X$1,22.5*%
G01*
%ADD10R,1.203200X1.303200*%
%ADD11R,1.003200X1.003200*%
%ADD12R,0.603200X1.703200*%
%ADD13R,2.203200X4.203200*%
%ADD14R,2.703200X1.203200*%
%ADD15C,0.953200*%
%ADD16C,1.219200*%
%ADD17R,1.600200X0.551200*%
%ADD18R,1.003200X2.703200*%
%ADD19C,1.981200*%
%ADD20C,1.303200*%
%ADD21C,1.003200*%


D10*
X27500Y189000D03*
X27500Y206000D03*
X15000Y136000D03*
X15000Y119000D03*
X12500Y189000D03*
X12500Y206000D03*
D11*
X12500Y170000D03*
X12500Y155000D03*
X27500Y155000D03*
X27500Y170000D03*
D12*
X80000Y42500D03*
X73500Y42500D03*
X86500Y42500D03*
X93000Y42500D03*
X67000Y42500D03*
D13*
X36500Y37000D03*
X124500Y36500D03*
D14*
X59500Y8500D03*
X101000Y8500D03*
D15*
X98000Y19500D03*
X62000Y19500D03*
D10*
X140000Y118500D03*
X140000Y101500D03*
X140000Y141500D03*
X140000Y158500D03*
D16*
X50000Y65000D03*
X65000Y65000D03*
X80000Y65000D03*
X95000Y65000D03*
X110000Y65000D03*
D17*
X43440Y107750D03*
X43440Y114250D03*
X43440Y120750D03*
X43440Y127250D03*
X43440Y133750D03*
X43440Y140250D03*
X43440Y146750D03*
X43440Y159750D03*
X43440Y153250D03*
X43440Y166250D03*
X43440Y172750D03*
X43440Y179250D03*
X43440Y185750D03*
X43440Y192250D03*
X116560Y107750D03*
X116560Y114250D03*
X116560Y120750D03*
X116560Y127250D03*
X116560Y133750D03*
X116560Y140250D03*
X116560Y146750D03*
X116560Y153250D03*
X116560Y159750D03*
X116560Y166250D03*
X116560Y172750D03*
X116560Y179250D03*
X116560Y185750D03*
X116560Y192250D03*
D18*
X87770Y230500D03*
X67230Y230500D03*
X113008Y230500D03*
D19*
X136000Y249810D02*
X136000Y267590D01*
X19000Y267590D02*
X19000Y249810D01*
D18*
X42500Y230500D03*
D20*
X100000Y258000D03*
X55000Y258000D03*
D21*
X19000Y254700D03*
X19000Y250700D03*
X19000Y262700D03*
X19000Y266700D03*
X136000Y254700D03*
X136000Y250700D03*
X136000Y262700D03*
X136000Y266700D03*
D10*
X139500Y204000D03*
X139500Y221000D03*
D11*
X140500Y174000D03*
X140500Y189000D03*
M02*
