M48
;GenerationSoftware,Autodesk,EAGLE,9.3.2*%
;CreationDate,2019-12-14T22:13:24Z*%
FMAT,2
ICI,OFF
METRIC,TZ,000.000
T4C0.350
T3C0.750
T2C0.800
T1C1.100
%
G90
M71
T1
X10000Y25800
X5500Y25800
T2
X1900Y25870
X1900Y25470
X1900Y25070
X1900Y26270
X1900Y26670
X13600Y25470
X13600Y25070
X13600Y26270
X13600Y26670
X13600Y25870
T3
X9800Y1950
X6200Y1950
T4
X5817Y10344
X5800Y16008
X6500Y17242
X7750Y17750
X5500Y8000
X3000Y21867
X8000Y15000
X1000Y9500
X4000Y9000
X11500Y9000
X13000Y8000
X1500Y5000
X1500Y2500
X12000Y20500
X1000Y23500
X6500Y20500
X7000Y11000
X10000Y11500
X4500Y20500
M30